<?xml version="1.0" standalone="no"?>
<!DOCTYPE svg PUBLIC "-//W3C//DTD SVG 1.1//EN" "http://www.w3.org/Graphics/SVG/1.1/DTD/svg11.dtd">
<svg width="115mm" height="85mm" viewBox="-30 -74 115 85" xmlns="http://www.w3.org/2000/svg" version="1.1">
<title>OpenSCAD Model</title>
<path d="
M 85,-74 L -30,-74 L -30,11 L 85,11 z
M 27.8995,-66.4032 L 27.7995,-66.4126 L 27.7002,-66.4283 L 27.6021,-66.4503 L 27.5056,-66.4783 L 27.411,-66.5124
 L 27.3187,-66.5523 L 27.2292,-66.5979 L 27.1427,-66.6491 L 27.0595,-66.7056 L 26.9801,-66.7672 L 26.9047,-66.8336
 L 26.8336,-66.9047 L 26.7672,-66.9801 L 26.7056,-67.0595 L 26.6491,-67.1427 L 26.5979,-67.2292 L 26.5523,-67.3188
 L 26.5123,-67.411 L 26.4783,-67.5056 L 26.4503,-67.6021 L 26.4283,-67.7002 L 26.4126,-67.7995 L 26.4032,-67.8995
 L 26.4,-68 L 26.4032,-68.1005 L 26.4126,-68.2005 L 26.4283,-68.2998 L 26.4503,-68.3979 L 26.4783,-68.4944
 L 26.5123,-68.589 L 26.5523,-68.6812 L 26.5979,-68.7708 L 26.6491,-68.8573 L 26.7056,-68.9405 L 26.7672,-69.0199
 L 26.8336,-69.0953 L 26.9047,-69.1664 L 26.9801,-69.2328 L 27.0595,-69.2944 L 27.1427,-69.3509 L 27.2292,-69.4021
 L 27.3187,-69.4477 L 27.411,-69.4876 L 27.5056,-69.5217 L 27.6021,-69.5497 L 27.7002,-69.5717 L 27.7995,-69.5874
 L 27.8995,-69.5968 L 28,-69.6 L 28.1005,-69.5968 L 28.2005,-69.5874 L 28.2998,-69.5717 L 28.3979,-69.5497
 L 28.4944,-69.5217 L 28.589,-69.4876 L 28.6812,-69.4477 L 28.7708,-69.4021 L 28.8573,-69.3509 L 28.9404,-69.2944
 L 29.0199,-69.2328 L 29.0953,-69.1664 L 29.1663,-69.0953 L 29.2328,-69.0199 L 29.2944,-68.9405 L 29.3509,-68.8573
 L 29.4021,-68.7708 L 29.4477,-68.6812 L 29.4876,-68.589 L 29.5217,-68.4944 L 29.5497,-68.3979 L 29.5717,-68.2998
 L 29.5874,-68.2005 L 29.5968,-68.1005 L 29.6,-68 L 29.5968,-67.8995 L 29.5874,-67.7995 L 29.5717,-67.7002
 L 29.5497,-67.6021 L 29.5217,-67.5056 L 29.4876,-67.411 L 29.4477,-67.3188 L 29.4021,-67.2292 L 29.3509,-67.1427
 L 29.2944,-67.0595 L 29.2328,-66.9801 L 29.1663,-66.9047 L 29.0953,-66.8336 L 29.0199,-66.7672 L 28.9404,-66.7056
 L 28.8573,-66.6491 L 28.7708,-66.5979 L 28.6812,-66.5523 L 28.589,-66.5124 L 28.4944,-66.4783 L 28.3979,-66.4503
 L 28.2998,-66.4283 L 28.2005,-66.4126 L 28.1005,-66.4032 L 28,-66.4 z
M 77.8995,-66.4032 L 77.7995,-66.4126 L 77.7002,-66.4283 L 77.6021,-66.4503 L 77.5056,-66.4783 L 77.411,-66.5124
 L 77.3188,-66.5523 L 77.2292,-66.5979 L 77.1427,-66.6491 L 77.0595,-66.7056 L 76.9801,-66.7672 L 76.9047,-66.8336
 L 76.8336,-66.9047 L 76.7672,-66.9801 L 76.7056,-67.0595 L 76.6491,-67.1427 L 76.5979,-67.2292 L 76.5523,-67.3188
 L 76.5124,-67.411 L 76.4783,-67.5056 L 76.4503,-67.6021 L 76.4283,-67.7002 L 76.4126,-67.7995 L 76.4032,-67.8995
 L 76.4,-68 L 76.4032,-68.1005 L 76.4126,-68.2005 L 76.4283,-68.2998 L 76.4503,-68.3979 L 76.4783,-68.4944
 L 76.5124,-68.589 L 76.5523,-68.6812 L 76.5979,-68.7708 L 76.6491,-68.8573 L 76.7056,-68.9405 L 76.7672,-69.0199
 L 76.8336,-69.0953 L 76.9047,-69.1664 L 76.9801,-69.2328 L 77.0595,-69.2944 L 77.1427,-69.3509 L 77.2292,-69.4021
 L 77.3188,-69.4477 L 77.411,-69.4876 L 77.5056,-69.5217 L 77.6021,-69.5497 L 77.7002,-69.5717 L 77.7995,-69.5874
 L 77.8995,-69.5968 L 78,-69.6 L 78.1005,-69.5968 L 78.2005,-69.5874 L 78.2998,-69.5717 L 78.3979,-69.5497
 L 78.4944,-69.5217 L 78.589,-69.4876 L 78.6812,-69.4477 L 78.7708,-69.4021 L 78.8573,-69.3509 L 78.9405,-69.2944
 L 79.0199,-69.2328 L 79.0953,-69.1664 L 79.1664,-69.0953 L 79.2328,-69.0199 L 79.2944,-68.9405 L 79.3509,-68.8573
 L 79.4021,-68.7708 L 79.4477,-68.6812 L 79.4876,-68.589 L 79.5217,-68.4944 L 79.5497,-68.3979 L 79.5717,-68.2998
 L 79.5874,-68.2005 L 79.5968,-68.1005 L 79.6,-68 L 79.5968,-67.8995 L 79.5874,-67.7995 L 79.5717,-67.7002
 L 79.5497,-67.6021 L 79.5217,-67.5056 L 79.4876,-67.411 L 79.4477,-67.3188 L 79.4021,-67.2292 L 79.3509,-67.1427
 L 79.2944,-67.0595 L 79.2328,-66.9801 L 79.1664,-66.9047 L 79.0953,-66.8336 L 79.0199,-66.7672 L 78.9405,-66.7056
 L 78.8573,-66.6491 L 78.7708,-66.5979 L 78.6812,-66.5523 L 78.589,-66.5124 L 78.4944,-66.4783 L 78.3979,-66.4503
 L 78.2998,-66.4283 L 78.2005,-66.4126 L 78.1005,-66.4032 L 78,-66.4 z
M -24.1005,-66.4032 L -24.2005,-66.4126 L -24.2998,-66.4283 L -24.3979,-66.4503 L -24.4944,-66.4783 L -24.589,-66.5124
 L -24.6812,-66.5523 L -24.7708,-66.5979 L -24.8573,-66.6491 L -24.9404,-66.7056 L -25.0199,-66.7672 L -25.0953,-66.8336
 L -25.1663,-66.9047 L -25.2328,-66.9801 L -25.2944,-67.0595 L -25.3509,-67.1427 L -25.4021,-67.2292 L -25.4477,-67.3188
 L -25.4876,-67.411 L -25.5217,-67.5056 L -25.5497,-67.6021 L -25.5717,-67.7002 L -25.5874,-67.7995 L -25.5968,-67.8995
 L -25.6,-68 L -25.5968,-68.1005 L -25.5874,-68.2005 L -25.5717,-68.2998 L -25.5497,-68.3979 L -25.5217,-68.4944
 L -25.4876,-68.589 L -25.4477,-68.6812 L -25.4021,-68.7708 L -25.3509,-68.8573 L -25.2944,-68.9405 L -25.2328,-69.0199
 L -25.1663,-69.0953 L -25.0953,-69.1664 L -25.0199,-69.2328 L -24.9404,-69.2944 L -24.8573,-69.3509 L -24.7708,-69.4021
 L -24.6812,-69.4477 L -24.589,-69.4876 L -24.4944,-69.5217 L -24.3979,-69.5497 L -24.2998,-69.5717 L -24.2005,-69.5874
 L -24.1005,-69.5968 L -24,-69.6 L -23.8995,-69.5968 L -23.7995,-69.5874 L -23.7002,-69.5717 L -23.6021,-69.5497
 L -23.5056,-69.5217 L -23.411,-69.4876 L -23.3187,-69.4477 L -23.2292,-69.4021 L -23.1427,-69.3509 L -23.0595,-69.2944
 L -22.9801,-69.2328 L -22.9047,-69.1664 L -22.8336,-69.0953 L -22.7672,-69.0199 L -22.7056,-68.9405 L -22.6491,-68.8573
 L -22.5979,-68.7708 L -22.5523,-68.6812 L -22.5123,-68.589 L -22.4783,-68.4944 L -22.4503,-68.3979 L -22.4283,-68.2998
 L -22.4126,-68.2005 L -22.4032,-68.1005 L -22.4,-68 L -22.4032,-67.8995 L -22.4126,-67.7995 L -22.4283,-67.7002
 L -22.4503,-67.6021 L -22.4783,-67.5056 L -22.5123,-67.411 L -22.5523,-67.3188 L -22.5979,-67.2292 L -22.6491,-67.1427
 L -22.7056,-67.0595 L -22.7672,-66.9801 L -22.8336,-66.9047 L -22.9047,-66.8336 L -22.9801,-66.7672 L -23.0595,-66.7056
 L -23.1427,-66.6491 L -23.2292,-66.5979 L -23.3187,-66.5523 L -23.411,-66.5124 L -23.5056,-66.4783 L -23.6021,-66.4503
 L -23.7002,-66.4283 L -23.7995,-66.4126 L -23.8995,-66.4032 L -24,-66.4 z
M 40,-46 L 40,-57 L 75,-57 L 75,-46 z
M 55.7738,-35.765 L 55.1187,-36.0988 L 54.5988,-36.6187 L 54.265,-37.2738 L 54.15,-38 L 54.265,-38.7262
 L 54.5988,-39.3813 L 55.1187,-39.9012 L 55.7738,-40.235 L 56.5,-40.35 L 57.2262,-40.235 L 57.8813,-39.9012
 L 58.4012,-39.3813 L 58.735,-38.7262 L 58.85,-38 L 58.735,-37.2738 L 58.4012,-36.6187 L 57.8813,-36.0988
 L 57.2262,-35.765 L 56.5,-35.65 z
M 77.8995,-29.4032 L 77.7995,-29.4126 L 77.7002,-29.4283 L 77.6021,-29.4503 L 77.5056,-29.4783 L 77.411,-29.5123
 L 77.3188,-29.5523 L 77.2292,-29.5979 L 77.1427,-29.6491 L 77.0595,-29.7056 L 76.9801,-29.7672 L 76.9047,-29.8336
 L 76.8336,-29.9047 L 76.7672,-29.9801 L 76.7056,-30.0595 L 76.6491,-30.1427 L 76.5979,-30.2292 L 76.5523,-30.3187
 L 76.5124,-30.411 L 76.4783,-30.5056 L 76.4503,-30.6021 L 76.4283,-30.7002 L 76.4126,-30.7995 L 76.4032,-30.8995
 L 76.4,-31 L 76.4032,-31.1005 L 76.4126,-31.2005 L 76.4283,-31.2998 L 76.4503,-31.3979 L 76.4783,-31.4944
 L 76.5124,-31.589 L 76.5523,-31.6812 L 76.5979,-31.7708 L 76.6491,-31.8573 L 76.7056,-31.9404 L 76.7672,-32.0199
 L 76.8336,-32.0953 L 76.9047,-32.1664 L 76.9801,-32.2328 L 77.0595,-32.2944 L 77.1427,-32.3509 L 77.2292,-32.4021
 L 77.3188,-32.4477 L 77.411,-32.4876 L 77.5056,-32.5217 L 77.6021,-32.5497 L 77.7002,-32.5717 L 77.7995,-32.5874
 L 77.8995,-32.5968 L 78,-32.6 L 78.1005,-32.5968 L 78.2005,-32.5874 L 78.2998,-32.5717 L 78.3979,-32.5497
 L 78.4944,-32.5217 L 78.589,-32.4876 L 78.6812,-32.4477 L 78.7708,-32.4021 L 78.8573,-32.3509 L 78.9405,-32.2944
 L 79.0199,-32.2328 L 79.0953,-32.1664 L 79.1664,-32.0953 L 79.2328,-32.0199 L 79.2944,-31.9404 L 79.3509,-31.8573
 L 79.4021,-31.7708 L 79.4477,-31.6812 L 79.4876,-31.589 L 79.5217,-31.4944 L 79.5497,-31.3979 L 79.5717,-31.2998
 L 79.5874,-31.2005 L 79.5968,-31.1005 L 79.6,-31 L 79.5968,-30.8995 L 79.5874,-30.7995 L 79.5717,-30.7002
 L 79.5497,-30.6021 L 79.5217,-30.5056 L 79.4876,-30.411 L 79.4477,-30.3187 L 79.4021,-30.2292 L 79.3509,-30.1427
 L 79.2944,-30.0595 L 79.2328,-29.9801 L 79.1664,-29.9047 L 79.0953,-29.8336 L 79.0199,-29.7672 L 78.9405,-29.7056
 L 78.8573,-29.6491 L 78.7708,-29.5979 L 78.6812,-29.5523 L 78.589,-29.5123 L 78.4944,-29.4783 L 78.3979,-29.4503
 L 78.2998,-29.4283 L 78.2005,-29.4126 L 78.1005,-29.4032 L 78,-29.4 z
M 27.8995,-29.4032 L 27.7995,-29.4126 L 27.7002,-29.4283 L 27.6021,-29.4503 L 27.5056,-29.4783 L 27.411,-29.5123
 L 27.3187,-29.5523 L 27.2292,-29.5979 L 27.1427,-29.6491 L 27.0595,-29.7056 L 26.9801,-29.7672 L 26.9047,-29.8336
 L 26.8336,-29.9047 L 26.7672,-29.9801 L 26.7056,-30.0595 L 26.6491,-30.1427 L 26.5979,-30.2292 L 26.5523,-30.3187
 L 26.5123,-30.411 L 26.4783,-30.5056 L 26.4503,-30.6021 L 26.4283,-30.7002 L 26.4126,-30.7995 L 26.4032,-30.8995
 L 26.4,-31 L 26.4032,-31.1005 L 26.4126,-31.2005 L 26.4283,-31.2998 L 26.4503,-31.3979 L 26.4783,-31.4944
 L 26.5123,-31.589 L 26.5523,-31.6812 L 26.5979,-31.7708 L 26.6491,-31.8573 L 26.7056,-31.9404 L 26.7672,-32.0199
 L 26.8336,-32.0953 L 26.9047,-32.1664 L 26.9801,-32.2328 L 27.0595,-32.2944 L 27.1427,-32.3509 L 27.2292,-32.4021
 L 27.3187,-32.4477 L 27.411,-32.4876 L 27.5056,-32.5217 L 27.6021,-32.5497 L 27.7002,-32.5717 L 27.7995,-32.5874
 L 27.8995,-32.5968 L 28,-32.6 L 28.1005,-32.5968 L 28.2005,-32.5874 L 28.2998,-32.5717 L 28.3979,-32.5497
 L 28.4944,-32.5217 L 28.589,-32.4876 L 28.6812,-32.4477 L 28.7708,-32.4021 L 28.8573,-32.3509 L 28.9404,-32.2944
 L 29.0199,-32.2328 L 29.0953,-32.1664 L 29.1663,-32.0953 L 29.2328,-32.0199 L 29.2944,-31.9404 L 29.3509,-31.8573
 L 29.4021,-31.7708 L 29.4477,-31.6812 L 29.4876,-31.589 L 29.5217,-31.4944 L 29.5497,-31.3979 L 29.5717,-31.2998
 L 29.5874,-31.2005 L 29.5968,-31.1005 L 29.6,-31 L 29.5968,-30.8995 L 29.5874,-30.7995 L 29.5717,-30.7002
 L 29.5497,-30.6021 L 29.5217,-30.5056 L 29.4876,-30.411 L 29.4477,-30.3187 L 29.4021,-30.2292 L 29.3509,-30.1427
 L 29.2944,-30.0595 L 29.2328,-29.9801 L 29.1663,-29.9047 L 29.0953,-29.8336 L 29.0199,-29.7672 L 28.9404,-29.7056
 L 28.8573,-29.6491 L 28.7708,-29.5979 L 28.6812,-29.5523 L 28.589,-29.5123 L 28.4944,-29.4783 L 28.3979,-29.4503
 L 28.2998,-29.4283 L 28.2005,-29.4126 L 28.1005,-29.4032 L 28,-29.4 z
M -24.1005,-29.4032 L -24.2005,-29.4126 L -24.2998,-29.4283 L -24.3979,-29.4503 L -24.4944,-29.4783 L -24.589,-29.5123
 L -24.6812,-29.5523 L -24.7708,-29.5979 L -24.8573,-29.6491 L -24.9404,-29.7056 L -25.0199,-29.7672 L -25.0953,-29.8336
 L -25.1663,-29.9047 L -25.2328,-29.9801 L -25.2944,-30.0595 L -25.3509,-30.1427 L -25.4021,-30.2292 L -25.4477,-30.3187
 L -25.4876,-30.411 L -25.5217,-30.5056 L -25.5497,-30.6021 L -25.5717,-30.7002 L -25.5874,-30.7995 L -25.5968,-30.8995
 L -25.6,-31 L -25.5968,-31.1005 L -25.5874,-31.2005 L -25.5717,-31.2998 L -25.5497,-31.3979 L -25.5217,-31.4944
 L -25.4876,-31.589 L -25.4477,-31.6812 L -25.4021,-31.7708 L -25.3509,-31.8573 L -25.2944,-31.9404 L -25.2328,-32.0199
 L -25.1663,-32.0953 L -25.0953,-32.1664 L -25.0199,-32.2328 L -24.9404,-32.2944 L -24.8573,-32.3509 L -24.7708,-32.4021
 L -24.6812,-32.4477 L -24.589,-32.4876 L -24.4944,-32.5217 L -24.3979,-32.5497 L -24.2998,-32.5717 L -24.2005,-32.5874
 L -24.1005,-32.5968 L -24,-32.6 L -23.8995,-32.5968 L -23.7995,-32.5874 L -23.7002,-32.5717 L -23.6021,-32.5497
 L -23.5056,-32.5217 L -23.411,-32.4876 L -23.3187,-32.4477 L -23.2292,-32.4021 L -23.1427,-32.3509 L -23.0595,-32.2944
 L -22.9801,-32.2328 L -22.9047,-32.1664 L -22.8336,-32.0953 L -22.7672,-32.0199 L -22.7056,-31.9404 L -22.6491,-31.8573
 L -22.5979,-31.7708 L -22.5523,-31.6812 L -22.5123,-31.589 L -22.4783,-31.4944 L -22.4503,-31.3979 L -22.4283,-31.2998
 L -22.4126,-31.2005 L -22.4032,-31.1005 L -22.4,-31 L -22.4032,-30.8995 L -22.4126,-30.7995 L -22.4283,-30.7002
 L -22.4503,-30.6021 L -22.4783,-30.5056 L -22.5123,-30.411 L -22.5523,-30.3187 L -22.5979,-30.2292 L -22.6491,-30.1427
 L -22.7056,-30.0595 L -22.7672,-29.9801 L -22.8336,-29.9047 L -22.9047,-29.8336 L -22.9801,-29.7672 L -23.0595,-29.7056
 L -23.1427,-29.6491 L -23.2292,-29.5979 L -23.3187,-29.5523 L -23.411,-29.5123 L -23.5056,-29.4783 L -23.6021,-29.4503
 L -23.7002,-29.4283 L -23.7995,-29.4126 L -23.8995,-29.4032 L -24,-29.4 z
M -0.235458,3.7426 L -0.469986,3.72043 L -0.702667,3.68356 L -0.932587,3.63217 L -1.15881,3.56645 L -1.38046,3.48665
 L -1.59666,3.3931 L -1.80656,3.28615 L -2.00934,3.16623 L -2.20419,3.03381 L -2.39034,2.88942 L -2.56705,2.73363
 L -2.73363,2.56705 L -2.88942,2.39034 L -3.03381,2.20419 L -3.16623,2.00934 L -3.28615,1.80656 L -3.3931,1.59666
 L -3.48665,1.38046 L -3.56645,1.15881 L -3.63217,0.932587 L -3.68356,0.702667 L -3.72043,0.469986 L -3.7426,0.235458
 L -3.75,-0 L -3.7426,-0.235458 L -3.72043,-0.469986 L -3.68356,-0.702667 L -3.63217,-0.932587 L -3.56645,-1.15881
 L -3.48665,-1.38046 L -3.3931,-1.59666 L -3.28615,-1.80656 L -3.16623,-2.00934 L -3.03381,-2.20419 L -2.88942,-2.39034
 L -2.73363,-2.56705 L -2.56705,-2.73363 L -2.39034,-2.88942 L -2.20419,-3.03381 L -2.00934,-3.16623 L -1.80656,-3.28615
 L -1.59666,-3.3931 L -1.38046,-3.48665 L -1.15881,-3.56645 L -0.932587,-3.63217 L -0.702667,-3.68356 L -0.469986,-3.72043
 L -0.235458,-3.7426 L 0,-3.75 L 0.235458,-3.7426 L 0.469986,-3.72043 L 0.702667,-3.68356 L 0.932587,-3.63217
 L 1.15881,-3.56645 L 1.38046,-3.48665 L 1.59666,-3.3931 L 1.80656,-3.28615 L 2.00934,-3.16623 L 2.20419,-3.03381
 L 2.39034,-2.88942 L 2.56705,-2.73363 L 2.73363,-2.56705 L 2.88942,-2.39034 L 3.03381,-2.20419 L 3.16623,-2.00934
 L 3.28615,-1.80656 L 3.3931,-1.59666 L 3.48665,-1.38046 L 3.56645,-1.15881 L 3.63217,-0.932587 L 3.68356,-0.702667
 L 3.72043,-0.469986 L 3.7426,-0.235458 L 3.75,-0 L 3.7426,0.235458 L 3.72043,0.469986 L 3.68356,0.702667
 L 3.63217,0.932587 L 3.56645,1.15881 L 3.48665,1.38046 L 3.3931,1.59666 L 3.28615,1.80656 L 3.16623,2.00934
 L 3.03381,2.20419 L 2.88942,2.39034 L 2.73363,2.56705 L 2.56705,2.73363 L 2.39034,2.88942 L 2.20419,3.03381
 L 2.00934,3.16623 L 1.80656,3.28615 L 1.59666,3.3931 L 1.38046,3.48665 L 1.15881,3.56645 L 0.932587,3.63217
 L 0.702667,3.68356 L 0.469986,3.72043 L 0.235458,3.7426 L 0,3.75 z
M -24.1005,6.59683 L -24.2005,6.58737 L -24.2998,6.57166 L -24.3979,6.54973 L -24.4944,6.52168 L -24.589,6.48764
 L -24.6812,6.44771 L -24.7708,6.40208 L -24.8573,6.35092 L -24.9404,6.29442 L -25.0199,6.23282 L -25.0953,6.16634
 L -25.1663,6.09526 L -25.2328,6.01987 L -25.2944,5.94044 L -25.3509,5.85732 L -25.4021,5.7708 L -25.4477,5.68124
 L -25.4876,5.58899 L -25.5217,5.49442 L -25.5497,5.3979 L -25.5717,5.2998 L -25.5874,5.20053 L -25.5968,5.10046
 L -25.6,5 L -25.5968,4.89952 L -25.5874,4.79945 L -25.5717,4.70018 L -25.5497,4.60208 L -25.5217,4.50557
 L -25.4876,4.411 L -25.4477,4.31874 L -25.4021,4.22919 L -25.3509,4.14267 L -25.2944,4.05954 L -25.2328,3.98012
 L -25.1663,3.90472 L -25.0953,3.83365 L -25.0199,3.76717 L -24.9404,3.70557 L -24.8573,3.64906 L -24.7708,3.5979
 L -24.6812,3.55228 L -24.589,3.51234 L -24.4944,3.4783 L -24.3979,3.45026 L -24.2998,3.42833 L -24.2005,3.41261
 L -24.1005,3.40315 L -24,3.39999 L -23.8995,3.40315 L -23.7995,3.41261 L -23.7002,3.42833 L -23.6021,3.45026
 L -23.5056,3.4783 L -23.411,3.51234 L -23.3187,3.55228 L -23.2292,3.5979 L -23.1427,3.64906 L -23.0595,3.70557
 L -22.9801,3.76717 L -22.9047,3.83365 L -22.8336,3.90472 L -22.7672,3.98012 L -22.7056,4.05954 L -22.6491,4.14267
 L -22.5979,4.22919 L -22.5523,4.31874 L -22.5123,4.411 L -22.4783,4.50557 L -22.4503,4.60208 L -22.4283,4.70018
 L -22.4126,4.79945 L -22.4032,4.89952 L -22.4,5 L -22.4032,5.10046 L -22.4126,5.20053 L -22.4283,5.2998
 L -22.4503,5.3979 L -22.4783,5.49442 L -22.5123,5.58899 L -22.5523,5.68124 L -22.5979,5.7708 L -22.6491,5.85732
 L -22.7056,5.94044 L -22.7672,6.01987 L -22.8336,6.09526 L -22.9047,6.16634 L -22.9801,6.23282 L -23.0595,6.29442
 L -23.1427,6.35092 L -23.2292,6.40208 L -23.3187,6.44771 L -23.411,6.48764 L -23.5056,6.52168 L -23.6021,6.54973
 L -23.7002,6.57166 L -23.7995,6.58737 L -23.8995,6.59683 L -24,6.59999 z
M 77.8995,6.59683 L 77.7995,6.58737 L 77.7002,6.57166 L 77.6021,6.54973 L 77.5056,6.52168 L 77.411,6.48764
 L 77.3188,6.44771 L 77.2292,6.40208 L 77.1427,6.35092 L 77.0595,6.29442 L 76.9801,6.23282 L 76.9047,6.16634
 L 76.8336,6.09526 L 76.7672,6.01987 L 76.7056,5.94044 L 76.6491,5.85732 L 76.5979,5.7708 L 76.5523,5.68124
 L 76.5124,5.58899 L 76.4783,5.49442 L 76.4503,5.3979 L 76.4283,5.2998 L 76.4126,5.20053 L 76.4032,5.10046
 L 76.4,5 L 76.4032,4.89952 L 76.4126,4.79945 L 76.4283,4.70018 L 76.4503,4.60208 L 76.4783,4.50557
 L 76.5124,4.411 L 76.5523,4.31874 L 76.5979,4.22919 L 76.6491,4.14267 L 76.7056,4.05954 L 76.7672,3.98012
 L 76.8336,3.90472 L 76.9047,3.83365 L 76.9801,3.76717 L 77.0595,3.70557 L 77.1427,3.64906 L 77.2292,3.5979
 L 77.3188,3.55228 L 77.411,3.51234 L 77.5056,3.4783 L 77.6021,3.45026 L 77.7002,3.42833 L 77.7995,3.41261
 L 77.8995,3.40315 L 78,3.39999 L 78.1005,3.40315 L 78.2005,3.41261 L 78.2998,3.42833 L 78.3979,3.45026
 L 78.4944,3.4783 L 78.589,3.51234 L 78.6812,3.55228 L 78.7708,3.5979 L 78.8573,3.64906 L 78.9405,3.70557
 L 79.0199,3.76717 L 79.0953,3.83365 L 79.1664,3.90472 L 79.2328,3.98012 L 79.2944,4.05954 L 79.3509,4.14267
 L 79.4021,4.22919 L 79.4477,4.31874 L 79.4876,4.411 L 79.5217,4.50557 L 79.5497,4.60208 L 79.5717,4.70018
 L 79.5874,4.79945 L 79.5968,4.89952 L 79.6,5 L 79.5968,5.10046 L 79.5874,5.20053 L 79.5717,5.2998
 L 79.5497,5.3979 L 79.5217,5.49442 L 79.4876,5.58899 L 79.4477,5.68124 L 79.4021,5.7708 L 79.3509,5.85732
 L 79.2944,5.94044 L 79.2328,6.01987 L 79.1664,6.09526 L 79.0953,6.16634 L 79.0199,6.23282 L 78.9405,6.29442
 L 78.8573,6.35092 L 78.7708,6.40208 L 78.6812,6.44771 L 78.589,6.48764 L 78.4944,6.52168 L 78.3979,6.54973
 L 78.2998,6.57166 L 78.2005,6.58737 L 78.1005,6.59683 L 78,6.59999 z
M 27.8995,6.59683 L 27.7995,6.58737 L 27.7002,6.57166 L 27.6021,6.54973 L 27.5056,6.52168 L 27.411,6.48764
 L 27.3187,6.44771 L 27.2292,6.40208 L 27.1427,6.35092 L 27.0595,6.29442 L 26.9801,6.23282 L 26.9047,6.16634
 L 26.8336,6.09526 L 26.7672,6.01987 L 26.7056,5.94044 L 26.6491,5.85732 L 26.5979,5.7708 L 26.5523,5.68124
 L 26.5123,5.58899 L 26.4783,5.49442 L 26.4503,5.3979 L 26.4283,5.2998 L 26.4126,5.20053 L 26.4032,5.10046
 L 26.4,5 L 26.4032,4.89952 L 26.4126,4.79945 L 26.4283,4.70018 L 26.4503,4.60208 L 26.4783,4.50557
 L 26.5123,4.411 L 26.5523,4.31874 L 26.5979,4.22919 L 26.6491,4.14267 L 26.7056,4.05954 L 26.7672,3.98012
 L 26.8336,3.90472 L 26.9047,3.83365 L 26.9801,3.76717 L 27.0595,3.70557 L 27.1427,3.64906 L 27.2292,3.5979
 L 27.3187,3.55228 L 27.411,3.51234 L 27.5056,3.4783 L 27.6021,3.45026 L 27.7002,3.42833 L 27.7995,3.41261
 L 27.8995,3.40315 L 28,3.39999 L 28.1005,3.40315 L 28.2005,3.41261 L 28.2998,3.42833 L 28.3979,3.45026
 L 28.4944,3.4783 L 28.589,3.51234 L 28.6812,3.55228 L 28.7708,3.5979 L 28.8573,3.64906 L 28.9404,3.70557
 L 29.0199,3.76717 L 29.0953,3.83365 L 29.1663,3.90472 L 29.2328,3.98012 L 29.2944,4.05954 L 29.3509,4.14267
 L 29.4021,4.22919 L 29.4477,4.31874 L 29.4876,4.411 L 29.5217,4.50557 L 29.5497,4.60208 L 29.5717,4.70018
 L 29.5874,4.79945 L 29.5968,4.89952 L 29.6,5 L 29.5968,5.10046 L 29.5874,5.20053 L 29.5717,5.2998
 L 29.5497,5.3979 L 29.5217,5.49442 L 29.4876,5.58899 L 29.4477,5.68124 L 29.4021,5.7708 L 29.3509,5.85732
 L 29.2944,5.94044 L 29.2328,6.01987 L 29.1663,6.09526 L 29.0953,6.16634 L 29.0199,6.23282 L 28.9404,6.29442
 L 28.8573,6.35092 L 28.7708,6.40208 L 28.6812,6.44771 L 28.589,6.48764 L 28.4944,6.52168 L 28.3979,6.54973
 L 28.2998,6.57166 L 28.2005,6.58737 L 28.1005,6.59683 L 28,6.59999 z
" stroke="black" fill="lightgray" stroke-width="0.5"/></svg>
