<?xml version="1.0" encoding="UTF-8" standalone="no"?>
<svg
   xmlns:dc="http://purl.org/dc/elements/1.1/"
   xmlns:cc="http://creativecommons.org/ns#"
   xmlns:rdf="http://www.w3.org/1999/02/22-rdf-syntax-ns#"
   xmlns:svg="http://www.w3.org/2000/svg"
   xmlns="http://www.w3.org/2000/svg"
   xmlns:sodipodi="http://sodipodi.sourceforge.net/DTD/sodipodi-0.dtd"
   xmlns:inkscape="http://www.inkscape.org/namespaces/inkscape"
   width="302mm"
   height="266mm"
   viewBox="-30 -267 302 266"
   version="1.1"
   id="svg6"
   sodipodi:docname="apparatus11.svg"
   inkscape:version="0.92.1 r15371">
  <metadata
     id="metadata12">
    <rdf:RDF>
      <cc:Work
         rdf:about="">
        <dc:format>image/svg+xml</dc:format>
        <dc:type
           rdf:resource="http://purl.org/dc/dcmitype/StillImage" />
        <dc:title>OpenSCAD Model</dc:title>
      </cc:Work>
    </rdf:RDF>
  </metadata>
  <defs
     id="defs10" />
  <sodipodi:namedview
     pagecolor="#ffffff"
     bordercolor="#666666"
     borderopacity="1"
     objecttolerance="10"
     gridtolerance="10"
     guidetolerance="10"
     inkscape:pageopacity="0"
     inkscape:pageshadow="2"
     inkscape:window-width="1536"
     inkscape:window-height="801"
     id="namedview8"
     showgrid="false"
     fit-margin-top="0"
     fit-margin-left="0"
     fit-margin-right="0"
     fit-margin-bottom="0"
     inkscape:zoom="0.20676049"
     inkscape:cx="571.65354"
     inkscape:cy="503.62206"
     inkscape:window-x="-8"
     inkscape:window-y="-8"
     inkscape:window-maximized="1"
     inkscape:current-layer="svg6" />
  <title
     id="title2">OpenSCAD Model</title>
  <path
     style="fill:none;stroke:#000000;stroke-width:0.0254;stroke-miterlimit:4;stroke-dasharray:none"
     d="m 271.75,-1.25 v -115 h -151 v 115 z"
     id="path984" />
  <path
     style="fill:none;stroke:#000000;stroke-width:0.0254;stroke-miterlimit:4;stroke-dasharray:none"
     d="m 264.153,-8.35 0.01,-0.101 0.015,-0.099 0.022,-0.098 0.028,-0.096 0.034,-0.095 0.04,-0.092 0.046,-0.09 0.051,-0.086 0.057,-0.083 0.061,-0.08 0.067,-0.075 0.071,-0.071 0.075,-0.067 0.08,-0.061 0.083,-0.057 0.086,-0.051 0.09,-0.046 0.092,-0.04 0.095,-0.034 0.096,-0.028 0.098,-0.022 0.099,-0.015 0.101,-0.01 0.1,-0.003 0.1,0.003 0.101,0.01 0.099,0.015 0.098,0.022 0.096,0.028 0.095,0.034 0.092,0.04 0.09,0.046 0.086,0.051 0.083,0.057 0.08,0.061 0.075,0.067 0.071,0.071 0.067,0.075 0.061,0.08 0.057,0.083 0.051,0.086 0.046,0.09 0.04,0.092 0.034,0.095 0.028,0.096 0.022,0.098 0.015,0.099 0.01,0.101 0.003,0.1 -0.003,0.1 -0.01,0.101 -0.015,0.099 -0.022,0.098 -0.028,0.096 -0.034,0.095 -0.04,0.092 -0.046,0.09 -0.051,0.086 -0.057,0.083 -0.061,0.08 -0.067,0.075 -0.071,0.071 -0.075,0.067 -0.08,0.061 -0.083,0.057 -0.086,0.051 -0.09,0.046 -0.092,0.04 -0.095,0.034 -0.096,0.028 -0.098,0.022 -0.099,0.015 -0.101,0.01 -0.1,0.003 -0.1,-0.003 -0.101,-0.01 -0.099,-0.015 -0.098,-0.022 -0.096,-0.028 -0.095,-0.034 -0.092,-0.04 -0.09,-0.046 -0.086,-0.051 -0.083,-0.057 -0.08,-0.061 -0.075,-0.067 -0.071,-0.071 -0.067,-0.075 -0.061,-0.08 -0.057,-0.083 -0.051,-0.086 -0.046,-0.09 -0.04,-0.092 -0.034,-0.095 -0.028,-0.096 -0.022,-0.098 -0.015,-0.099 -0.01,-0.101 -0.003,-0.1 z"
     id="path982" />
  <path
     style="fill:none;stroke:#000000;stroke-width:0.0254;stroke-miterlimit:4;stroke-dasharray:none"
     d="m 264.153,-58.35 0.01,-0.101 0.015,-0.099 0.022,-0.098 0.028,-0.096 0.034,-0.095 0.04,-0.092 0.046,-0.09 0.051,-0.086 0.057,-0.083 0.061,-0.08 0.067,-0.075 0.071,-0.071 0.075,-0.067 0.08,-0.061 0.083,-0.057 0.086,-0.051 0.09,-0.046 0.092,-0.04 0.095,-0.034 0.096,-0.028 0.098,-0.022 0.099,-0.015 0.101,-0.01 0.1,-0.003 0.1,0.003 0.101,0.01 0.099,0.015 0.098,0.022 0.096,0.028 0.095,0.034 0.092,0.04 0.09,0.046 0.086,0.051 0.083,0.057 0.08,0.061 0.075,0.067 0.071,0.071 0.067,0.075 0.061,0.08 0.057,0.083 0.051,0.086 0.046,0.09 0.04,0.092 0.034,0.095 0.028,0.096 0.022,0.098 0.015,0.099 0.01,0.101 0.003,0.1 -0.003,0.1 -0.01,0.101 -0.015,0.099 -0.022,0.098 -0.028,0.096 -0.034,0.095 -0.04,0.092 -0.046,0.09 -0.051,0.086 -0.057,0.083 -0.061,0.08 -0.067,0.075 -0.071,0.071 -0.075,0.067 -0.08,0.061 -0.083,0.057 -0.086,0.051 -0.09,0.046 -0.092,0.04 -0.095,0.034 -0.096,0.028 -0.098,0.022 -0.099,0.015 -0.101,0.01 -0.1,0.003 -0.1,-0.003 -0.101,-0.01 -0.099,-0.015 -0.098,-0.022 -0.096,-0.028 -0.095,-0.034 -0.092,-0.04 -0.09,-0.046 -0.086,-0.051 -0.083,-0.057 -0.08,-0.061 -0.075,-0.067 -0.071,-0.071 -0.067,-0.075 -0.061,-0.08 -0.057,-0.083 -0.051,-0.086 -0.046,-0.09 -0.04,-0.092 -0.034,-0.095 -0.028,-0.096 -0.022,-0.098 -0.015,-0.099 -0.01,-0.101 -0.003,-0.1 z"
     id="path980" />
  <path
     style="fill:none;stroke:#000000;stroke-width:0.0254;stroke-miterlimit:4;stroke-dasharray:none"
     d="m 264.153,-110.35 0.01,-0.101 0.015,-0.099 0.022,-0.098 0.028,-0.096 0.034,-0.095 0.04,-0.092 0.046,-0.09 0.051,-0.086 0.057,-0.083 0.061,-0.08 0.067,-0.075 0.071,-0.071 0.075,-0.067 0.08,-0.061 0.083,-0.057 0.086,-0.051 0.09,-0.046 0.092,-0.04 0.095,-0.034 0.096,-0.028 0.098,-0.022 0.099,-0.015 0.101,-0.01 0.1,-0.003 0.1,0.003 0.101,0.01 0.099,0.015 0.098,0.022 0.096,0.028 0.095,0.034 0.092,0.04 0.09,0.046 0.086,0.051 0.083,0.057 0.08,0.061 0.075,0.067 0.071,0.071 0.067,0.075 0.061,0.08 0.057,0.083 0.051,0.086 0.046,0.09 0.04,0.092 0.034,0.095 0.028,0.096 0.022,0.098 0.015,0.099 0.01,0.101 0.003,0.1 -0.003,0.1 -0.01,0.101 -0.015,0.099 -0.022,0.098 -0.028,0.096 -0.034,0.095 -0.04,0.092 -0.046,0.09 -0.051,0.086 -0.057,0.083 -0.061,0.08 -0.067,0.075 -0.071,0.071 -0.075,0.067 -0.08,0.061 -0.083,0.057 -0.086,0.051 -0.09,0.046 -0.092,0.04 -0.095,0.034 -0.096,0.028 -0.098,0.022 -0.099,0.015 -0.101,0.01 -0.1,0.003 -0.1,-0.003 -0.101,-0.01 -0.099,-0.015 -0.098,-0.022 -0.096,-0.028 -0.095,-0.034 -0.092,-0.04 -0.09,-0.046 -0.086,-0.051 -0.083,-0.057 -0.08,-0.061 -0.075,-0.067 -0.071,-0.071 -0.067,-0.075 -0.061,-0.08 -0.057,-0.083 -0.051,-0.086 -0.046,-0.09 -0.04,-0.092 -0.034,-0.095 -0.028,-0.096 -0.022,-0.098 -0.015,-0.099 -0.01,-0.101 -0.003,-0.1 z"
     id="path978" />
  <path
     style="fill:none;stroke:#000000;stroke-width:0.0254;stroke-miterlimit:4;stroke-dasharray:none"
     d="m 252.75,-99.25 h 10 v 25 h -10 z"
     id="path976" />
  <path
     style="fill:none;stroke:#000000;stroke-width:0.0254;stroke-miterlimit:4;stroke-dasharray:none"
     d="m 201.75,-46.25 h 11 v 35 h -11 z"
     id="path974" />
  <path
     style="fill:none;stroke:#000000;stroke-width:0.0254;stroke-miterlimit:4;stroke-dasharray:none"
     d="m 185.153,-110.35 0.01,-0.101 0.015,-0.099 0.022,-0.098 0.028,-0.096 0.034,-0.095 0.04,-0.092 0.046,-0.09 0.051,-0.086 0.057,-0.083 0.061,-0.08 0.067,-0.075 0.071,-0.071 0.075,-0.067 0.08,-0.061 0.083,-0.057 0.086,-0.051 0.09,-0.046 0.092,-0.04 0.095,-0.034 0.096,-0.028 0.098,-0.022 0.099,-0.015 0.101,-0.01 0.1,-0.003 0.1,0.003 0.101,0.01 0.099,0.015 0.098,0.022 0.096,0.028 0.095,0.034 0.092,0.04 0.09,0.046 0.086,0.051 0.083,0.057 0.08,0.061 0.075,0.067 0.071,0.071 0.067,0.075 0.061,0.08 0.057,0.083 0.051,0.086 0.046,0.09 0.04,0.092 0.034,0.095 0.028,0.096 0.022,0.098 0.015,0.099 0.01,0.101 0.003,0.1 -0.003,0.1 -0.01,0.101 -0.015,0.099 -0.022,0.098 -0.028,0.096 -0.034,0.095 -0.04,0.092 -0.046,0.09 -0.051,0.086 -0.057,0.083 -0.061,0.08 -0.067,0.075 -0.071,0.071 -0.075,0.067 -0.08,0.061 -0.083,0.057 -0.086,0.051 -0.09,0.046 -0.092,0.04 -0.095,0.034 -0.096,0.028 -0.098,0.022 -0.099,0.015 -0.101,0.01 -0.1,0.003 -0.1,-0.003 -0.101,-0.01 -0.099,-0.015 -0.098,-0.022 -0.096,-0.028 -0.095,-0.034 -0.092,-0.04 -0.09,-0.046 -0.086,-0.051 -0.083,-0.057 -0.08,-0.061 -0.075,-0.067 -0.071,-0.071 -0.067,-0.075 -0.061,-0.08 -0.057,-0.083 -0.051,-0.086 -0.046,-0.09 -0.04,-0.092 -0.034,-0.095 -0.028,-0.096 -0.022,-0.098 -0.015,-0.099 -0.01,-0.101 -0.003,-0.1 z"
     id="path972" />
  <path
     style="fill:none;stroke:#000000;stroke-width:0.0254;stroke-miterlimit:4;stroke-dasharray:none"
     d="m 185.153,-58.35 0.01,-0.101 0.015,-0.099 0.022,-0.098 0.028,-0.096 0.034,-0.095 0.04,-0.092 0.046,-0.09 0.051,-0.086 0.057,-0.083 0.061,-0.08 0.067,-0.075 0.071,-0.071 0.075,-0.067 0.08,-0.061 0.083,-0.057 0.086,-0.051 0.09,-0.046 0.092,-0.04 0.095,-0.034 0.096,-0.028 0.098,-0.022 0.099,-0.015 0.101,-0.01 0.1,-0.003 0.1,0.003 0.101,0.01 0.099,0.015 0.098,0.022 0.096,0.028 0.095,0.034 0.092,0.04 0.09,0.046 0.086,0.051 0.083,0.057 0.08,0.061 0.075,0.067 0.071,0.071 0.067,0.075 0.061,0.08 0.057,0.083 0.051,0.086 0.046,0.09 0.04,0.092 0.034,0.095 0.028,0.096 0.022,0.098 0.015,0.099 0.01,0.101 0.003,0.1 -0.003,0.1 -0.01,0.101 -0.015,0.099 -0.022,0.098 -0.028,0.096 -0.034,0.095 -0.04,0.092 -0.046,0.09 -0.051,0.086 -0.057,0.083 -0.061,0.08 -0.067,0.075 -0.071,0.071 -0.075,0.067 -0.08,0.061 -0.083,0.057 -0.086,0.051 -0.09,0.046 -0.092,0.04 -0.095,0.034 -0.096,0.028 -0.098,0.022 -0.099,0.015 -0.101,0.01 -0.1,0.003 -0.1,-0.003 -0.101,-0.01 -0.099,-0.015 -0.098,-0.022 -0.096,-0.028 -0.095,-0.034 -0.092,-0.04 -0.09,-0.046 -0.086,-0.051 -0.083,-0.057 -0.08,-0.061 -0.075,-0.067 -0.071,-0.071 -0.067,-0.075 -0.061,-0.08 -0.057,-0.083 -0.051,-0.086 -0.046,-0.09 -0.04,-0.092 -0.034,-0.095 -0.028,-0.096 -0.022,-0.098 -0.015,-0.099 -0.01,-0.101 -0.003,-0.1 z"
     id="path970" />
  <path
     style="fill:none;stroke:#000000;stroke-width:0.0254;stroke-miterlimit:4;stroke-dasharray:none"
     d="m 185.153,-8.35 0.01,-0.101 0.015,-0.099 0.022,-0.098 0.028,-0.096 0.034,-0.095 0.04,-0.092 0.046,-0.09 0.051,-0.086 0.057,-0.083 0.061,-0.08 0.067,-0.075 0.071,-0.071 0.075,-0.067 0.08,-0.061 0.083,-0.057 0.086,-0.051 0.09,-0.046 0.092,-0.04 0.095,-0.034 0.096,-0.028 0.098,-0.022 0.099,-0.015 0.101,-0.01 0.1,-0.003 0.1,0.003 0.101,0.01 0.099,0.015 0.098,0.022 0.096,0.028 0.095,0.034 0.092,0.04 0.09,0.046 0.086,0.051 0.083,0.057 0.08,0.061 0.075,0.067 0.071,0.071 0.067,0.075 0.061,0.08 0.057,0.083 0.051,0.086 0.046,0.09 0.04,0.092 0.034,0.095 0.028,0.096 0.022,0.098 0.015,0.099 0.01,0.101 0.003,0.1 -0.003,0.1 -0.01,0.101 -0.015,0.099 -0.022,0.098 -0.028,0.096 -0.034,0.095 -0.04,0.092 -0.046,0.09 -0.051,0.086 -0.057,0.083 -0.061,0.08 -0.067,0.075 -0.071,0.071 -0.075,0.067 -0.08,0.061 -0.083,0.057 -0.086,0.051 -0.09,0.046 -0.092,0.04 -0.095,0.034 -0.096,0.028 -0.098,0.022 -0.099,0.015 -0.101,0.01 -0.1,0.003 -0.1,-0.003 -0.101,-0.01 -0.099,-0.015 -0.098,-0.022 -0.096,-0.028 -0.095,-0.034 -0.092,-0.04 -0.09,-0.046 -0.086,-0.051 -0.083,-0.057 -0.08,-0.061 -0.075,-0.067 -0.071,-0.071 -0.067,-0.075 -0.061,-0.08 -0.057,-0.083 -0.051,-0.086 -0.046,-0.09 -0.04,-0.092 -0.034,-0.095 -0.028,-0.096 -0.022,-0.098 -0.015,-0.099 -0.01,-0.101 -0.003,-0.1 z"
     id="path968" />
  <path
     style="fill:none;stroke:#000000;stroke-width:0.0254;stroke-miterlimit:4;stroke-dasharray:none"
     d="m 143.729,-87.513 0.526,-2.472 1.027,-2.308 1.486,-2.045 1.877,-1.691 2.189,-1.263 2.403,-0.781 2.513,-0.264 2.513,0.264 2.403,0.781 2.189,1.263 1.877,1.691 1.486,2.045 1.027,2.308 0.526,2.472 v 2.526 l -0.526,2.472 -1.027,2.308 -1.486,2.045 -1.877,1.691 -2.189,1.263 -2.403,0.781 -2.513,0.264 -2.513,-0.264 -2.403,-0.781 -2.189,-1.263 -1.877,-1.691 -1.486,-2.045 -1.027,-2.308 -0.526,-2.472 z"
     id="path966" />
  <path
     style="fill:none;stroke:#000000;stroke-width:0.0254;stroke-miterlimit:4;stroke-dasharray:none"
     d="m 124.153,-58.35 0.01,-0.101 0.015,-0.099 0.022,-0.098 0.028,-0.096 0.034,-0.095 0.04,-0.092 0.046,-0.09 0.051,-0.086 0.057,-0.083 0.061,-0.08 0.067,-0.075 0.071,-0.071 0.075,-0.067 0.08,-0.061 0.083,-0.057 0.086,-0.051 0.09,-0.046 0.092,-0.04 0.095,-0.034 0.096,-0.028 0.098,-0.022 0.099,-0.015 0.101,-0.01 0.1,-0.003 0.1,0.003 0.101,0.01 0.099,0.015 0.098,0.022 0.096,0.028 0.095,0.034 0.092,0.04 0.09,0.046 0.086,0.051 0.083,0.057 0.08,0.061 0.075,0.067 0.071,0.071 0.067,0.075 0.061,0.08 0.057,0.083 0.051,0.086 0.046,0.09 0.04,0.092 0.034,0.095 0.028,0.096 0.022,0.098 0.015,0.099 0.01,0.101 0.003,0.1 -0.003,0.1 -0.01,0.101 -0.015,0.099 -0.022,0.098 -0.028,0.096 -0.034,0.095 -0.04,0.092 -0.046,0.09 -0.051,0.086 -0.057,0.083 -0.061,0.08 -0.067,0.075 -0.071,0.071 -0.075,0.067 -0.08,0.061 -0.083,0.057 -0.086,0.051 -0.09,0.046 -0.092,0.04 -0.095,0.034 -0.096,0.028 -0.098,0.022 -0.099,0.015 -0.101,0.01 -0.1,0.003 -0.1,-0.003 -0.101,-0.01 -0.099,-0.015 -0.098,-0.022 -0.096,-0.028 -0.095,-0.034 -0.092,-0.04 -0.09,-0.046 -0.086,-0.051 -0.083,-0.057 -0.08,-0.061 -0.075,-0.067 -0.071,-0.071 -0.067,-0.075 -0.061,-0.08 -0.057,-0.083 -0.051,-0.086 -0.046,-0.09 -0.04,-0.092 -0.034,-0.095 -0.028,-0.096 -0.022,-0.098 -0.015,-0.099 -0.01,-0.101 -0.003,-0.1 z"
     id="path964" />
  <path
     style="fill:none;stroke:#000000;stroke-width:0.0254;stroke-miterlimit:4;stroke-dasharray:none"
     d="m 124.153,-110.35 0.01,-0.101 0.015,-0.099 0.022,-0.098 0.028,-0.096 0.034,-0.095 0.04,-0.092 0.046,-0.09 0.051,-0.086 0.057,-0.083 0.061,-0.08 0.067,-0.075 0.071,-0.071 0.075,-0.067 0.08,-0.061 0.083,-0.057 0.086,-0.051 0.09,-0.046 0.092,-0.04 0.095,-0.034 0.096,-0.028 0.098,-0.022 0.099,-0.015 0.101,-0.01 0.1,-0.003 0.1,0.003 0.101,0.01 0.099,0.015 0.098,0.022 0.096,0.028 0.095,0.034 0.092,0.04 0.09,0.046 0.086,0.051 0.083,0.057 0.08,0.061 0.075,0.067 0.071,0.071 0.067,0.075 0.061,0.08 0.057,0.083 0.051,0.086 0.046,0.09 0.04,0.092 0.034,0.095 0.028,0.096 0.022,0.098 0.015,0.099 0.01,0.101 0.003,0.1 -0.003,0.1 -0.01,0.101 -0.015,0.099 -0.022,0.098 -0.028,0.096 -0.034,0.095 -0.04,0.092 -0.046,0.09 -0.051,0.086 -0.057,0.083 -0.061,0.08 -0.067,0.075 -0.071,0.071 -0.075,0.067 -0.08,0.061 -0.083,0.057 -0.086,0.051 -0.09,0.046 -0.092,0.04 -0.095,0.034 -0.096,0.028 -0.098,0.022 -0.099,0.015 -0.101,0.01 -0.1,0.003 -0.1,-0.003 -0.101,-0.01 -0.099,-0.015 -0.098,-0.022 -0.096,-0.028 -0.095,-0.034 -0.092,-0.04 -0.09,-0.046 -0.086,-0.051 -0.083,-0.057 -0.08,-0.061 -0.075,-0.067 -0.071,-0.071 -0.067,-0.075 -0.061,-0.08 -0.057,-0.083 -0.051,-0.086 -0.046,-0.09 -0.04,-0.092 -0.034,-0.095 -0.028,-0.096 -0.022,-0.098 -0.015,-0.099 -0.01,-0.101 -0.003,-0.1 z"
     id="path962" />
  <path
     style="fill:none;stroke:#000000;stroke-width:0.0254;stroke-miterlimit:4;stroke-dasharray:none"
     d="m 124.153,-8.35 0.01,-0.101 0.015,-0.099 0.022,-0.098 0.028,-0.096 0.034,-0.095 0.04,-0.092 0.046,-0.09 0.051,-0.086 0.057,-0.083 0.061,-0.08 0.067,-0.075 0.071,-0.071 0.075,-0.067 0.08,-0.061 0.083,-0.057 0.086,-0.051 0.09,-0.046 0.092,-0.04 0.095,-0.034 0.096,-0.028 0.098,-0.022 0.099,-0.015 0.101,-0.01 0.1,-0.003 0.1,0.003 0.101,0.01 0.099,0.015 0.098,0.022 0.096,0.028 0.095,0.034 0.092,0.04 0.09,0.046 0.086,0.051 0.083,0.057 0.08,0.061 0.075,0.067 0.071,0.071 0.067,0.075 0.061,0.08 0.057,0.083 0.051,0.086 0.046,0.09 0.04,0.092 0.034,0.095 0.028,0.096 0.022,0.098 0.015,0.099 0.01,0.101 0.003,0.1 -0.003,0.1 -0.01,0.101 -0.015,0.099 -0.022,0.098 -0.028,0.096 -0.034,0.095 -0.04,0.092 -0.046,0.09 -0.051,0.086 -0.057,0.083 -0.061,0.08 -0.067,0.075 -0.071,0.071 -0.075,0.067 -0.08,0.061 -0.083,0.057 -0.086,0.051 -0.09,0.046 -0.092,0.04 -0.095,0.034 -0.096,0.028 -0.098,0.022 -0.099,0.015 -0.101,0.01 -0.1,0.003 -0.1,-0.003 -0.101,-0.01 -0.099,-0.015 -0.098,-0.022 -0.096,-0.028 -0.095,-0.034 -0.092,-0.04 -0.09,-0.046 -0.086,-0.051 -0.083,-0.057 -0.08,-0.061 -0.075,-0.067 -0.071,-0.071 -0.067,-0.075 -0.061,-0.08 -0.057,-0.083 -0.051,-0.086 -0.046,-0.09 -0.04,-0.092 -0.034,-0.095 -0.028,-0.096 -0.022,-0.098 -0.015,-0.099 -0.01,-0.101 -0.003,-0.1 z"
     id="path960" />
  <path
     style="fill:none;stroke:#000000;stroke-width:0.0254;stroke-miterlimit:4;stroke-dasharray:none"
     d="m 270.75,-116.75 v -150 h -150 v 150 z"
     id="path958" />
  <path
     style="fill:none;stroke:#000000;stroke-width:0.0254;stroke-miterlimit:4;stroke-dasharray:none"
     d="m 264.153,-208.8505 0.01,-0.1 0.015,-0.0993 0.022,-0.0981 0.028,-0.0965 0.034,-0.0946 0.04,-0.0923 0.046,-0.0895 0.051,-0.0865 0.057,-0.0832 0.061,-0.0794 0.067,-0.0754 0.071,-0.0711 0.075,-0.0664 0.08,-0.0616 0.083,-0.0565 0.086,-0.0512 0.09,-0.0456 0.092,-0.04 0.095,-0.034 0.096,-0.028 0.098,-0.022 0.099,-0.0157 0.101,-0.009 0.1,-0.003 0.1,0.003 0.101,0.009 0.099,0.0157 0.098,0.022 0.096,0.028 0.095,0.034 0.092,0.04 0.09,0.0456 0.086,0.0512 0.083,0.0565 0.08,0.0616 0.075,0.0664 0.071,0.0711 0.067,0.0754 0.061,0.0794 0.057,0.0832 0.051,0.0865 0.046,0.0895 0.04,0.0923 0.034,0.0946 0.028,0.0965 0.022,0.0981 0.015,0.0993 0.01,0.1 0.003,0.1005 -0.003,0.1005 -0.01,0.1 -0.015,0.0993 -0.022,0.0981 -0.028,0.0965 -0.034,0.0946 -0.04,0.0922 -0.046,0.0896 -0.051,0.0865 -0.057,0.0831 -0.061,0.0795 -0.067,0.0754 -0.071,0.071 -0.075,0.0665 -0.08,0.0616 -0.083,0.0565 -0.086,0.0512 -0.09,0.0456 -0.092,0.0399 -0.095,0.0341 -0.096,0.028 -0.098,0.022 -0.099,0.0157 -0.101,0.009 -0.1,0.003 -0.1,-0.003 -0.101,-0.009 -0.099,-0.0157 -0.098,-0.022 -0.096,-0.028 -0.095,-0.0341 -0.092,-0.0399 -0.09,-0.0456 -0.086,-0.0512 -0.083,-0.0565 -0.08,-0.0616 -0.075,-0.0665 -0.071,-0.071 -0.067,-0.0754 -0.061,-0.0795 -0.057,-0.0831 -0.051,-0.0865 -0.046,-0.0896 -0.04,-0.0922 -0.034,-0.0946 -0.028,-0.0965 -0.022,-0.0981 -0.015,-0.0993 -0.01,-0.1 -0.003,-0.1005 z"
     id="path956" />
  <path
     style="fill:none;stroke:#000000;stroke-width:0.0254;stroke-miterlimit:4;stroke-dasharray:none"
     d="m 264.153,-260.8505 0.01,-0.1 0.015,-0.0993 0.022,-0.0981 0.028,-0.0965 0.034,-0.0946 0.04,-0.0922 0.046,-0.0896 0.051,-0.0865 0.057,-0.0831 0.061,-0.0795 0.067,-0.0754 0.071,-0.071 0.075,-0.0665 0.08,-0.0616 0.083,-0.0565 0.086,-0.0512 0.09,-0.0456 0.092,-0.0399 0.095,-0.0341 0.096,-0.028 0.098,-0.022 0.099,-0.0157 0.101,-0.009 0.1,-0.003 0.1,0.003 0.101,0.009 0.099,0.0157 0.098,0.022 0.096,0.028 0.095,0.0341 0.092,0.0399 0.09,0.0456 0.086,0.0512 0.083,0.0565 0.08,0.0616 0.075,0.0665 0.071,0.071 0.067,0.0754 0.061,0.0795 0.057,0.0831 0.051,0.0865 0.046,0.0896 0.04,0.0922 0.034,0.0946 0.028,0.0965 0.022,0.0981 0.015,0.0993 0.01,0.1 0.003,0.1005 -0.003,0.1005 -0.01,0.1 -0.015,0.0993 -0.022,0.0981 -0.028,0.0965 -0.034,0.0946 -0.04,0.0923 -0.046,0.0895 -0.051,0.0865 -0.057,0.0832 -0.061,0.0794 -0.067,0.0754 -0.071,0.0711 -0.075,0.0664 -0.08,0.0616 -0.083,0.0565 -0.086,0.0512 -0.09,0.0456 -0.092,0.04 -0.095,0.034 -0.096,0.028 -0.098,0.022 -0.099,0.0157 -0.101,0.009 -0.1,0.003 -0.1,-0.003 -0.101,-0.009 -0.099,-0.0157 -0.098,-0.022 -0.096,-0.028 -0.095,-0.034 -0.092,-0.04 -0.09,-0.0456 -0.086,-0.0512 -0.083,-0.0565 -0.08,-0.0616 -0.075,-0.0664 -0.071,-0.0711 -0.067,-0.0754 -0.061,-0.0794 -0.057,-0.0832 -0.051,-0.0865 -0.046,-0.0895 -0.04,-0.0923 -0.034,-0.0946 -0.028,-0.0965 -0.022,-0.0981 -0.015,-0.0993 -0.01,-0.1 -0.003,-0.1005 z"
     id="path954" />
  <path
     style="fill:none;stroke:#000000;stroke-width:0.0254;stroke-miterlimit:4;stroke-dasharray:none"
     d="m 264.153,-158.8505 0.01,-0.1 0.015,-0.0993 0.022,-0.0981 0.028,-0.0965 0.034,-0.0946 0.04,-0.0922 0.046,-0.0896 0.051,-0.0865 0.057,-0.0832 0.061,-0.0794 0.067,-0.0754 0.071,-0.0711 0.075,-0.0664 0.08,-0.0616 0.083,-0.0565 0.086,-0.0512 0.09,-0.0456 0.092,-0.0399 0.095,-0.0341 0.096,-0.028 0.098,-0.022 0.099,-0.0157 0.101,-0.009 0.1,-0.003 0.1,0.003 0.101,0.009 0.099,0.0157 0.098,0.022 0.096,0.028 0.095,0.0341 0.092,0.0399 0.09,0.0456 0.086,0.0512 0.083,0.0565 0.08,0.0616 0.075,0.0664 0.071,0.0711 0.067,0.0754 0.061,0.0794 0.057,0.0832 0.051,0.0865 0.046,0.0896 0.04,0.0922 0.034,0.0946 0.028,0.0965 0.022,0.0981 0.015,0.0993 0.01,0.1 0.003,0.1005 -0.003,0.1005 -0.01,0.1 -0.015,0.0993 -0.022,0.0981 -0.028,0.0965 -0.034,0.0946 -0.04,0.0922 -0.046,0.0896 -0.051,0.0865 -0.057,0.0832 -0.061,0.0794 -0.067,0.0754 -0.071,0.0711 -0.075,0.0664 -0.08,0.0616 -0.083,0.0565 -0.086,0.0512 -0.09,0.0456 -0.092,0.0399 -0.095,0.0341 -0.096,0.028 -0.098,0.022 -0.099,0.0157 -0.101,0.009 -0.1,0.003 -0.1,-0.003 -0.101,-0.009 -0.099,-0.0157 -0.098,-0.022 -0.096,-0.028 -0.095,-0.0341 -0.092,-0.0399 -0.09,-0.0456 -0.086,-0.0512 -0.083,-0.0565 -0.08,-0.0616 -0.075,-0.0664 -0.071,-0.0711 -0.067,-0.0754 -0.061,-0.0794 -0.057,-0.0832 -0.051,-0.0865 -0.046,-0.0896 -0.04,-0.0922 -0.034,-0.0946 -0.028,-0.0965 -0.022,-0.0981 -0.015,-0.0993 -0.01,-0.1 -0.003,-0.1005 z"
     id="path952" />
  <path
     style="fill:none;stroke:#000000;stroke-width:0.0254;stroke-miterlimit:4;stroke-dasharray:none"
     d="m 264.153,-123.85 0.01,-0.101 0.015,-0.099 0.022,-0.098 0.028,-0.096 0.034,-0.095 0.04,-0.092 0.046,-0.09 0.051,-0.086 0.057,-0.083 0.061,-0.08 0.067,-0.075 0.071,-0.071 0.075,-0.067 0.08,-0.061 0.083,-0.057 0.086,-0.051 0.09,-0.046 0.092,-0.04 0.095,-0.034 0.096,-0.028 0.098,-0.022 0.099,-0.015 0.101,-0.01 0.1,-0.003 0.1,0.003 0.101,0.01 0.099,0.015 0.098,0.022 0.096,0.028 0.095,0.034 0.092,0.04 0.09,0.046 0.086,0.051 0.083,0.057 0.08,0.061 0.075,0.067 0.071,0.071 0.067,0.075 0.061,0.08 0.057,0.083 0.051,0.086 0.046,0.09 0.04,0.092 0.034,0.095 0.028,0.096 0.022,0.098 0.015,0.099 0.01,0.101 0.003,0.1 -0.003,0.1 -0.01,0.101 -0.015,0.099 -0.022,0.098 -0.028,0.096 -0.034,0.095 -0.04,0.092 -0.046,0.09 -0.051,0.086 -0.057,0.083 -0.061,0.08 -0.067,0.075 -0.071,0.071 -0.075,0.067 -0.08,0.061 -0.083,0.057 -0.086,0.051 -0.09,0.046 -0.092,0.04 -0.095,0.034 -0.096,0.028 -0.098,0.022 -0.099,0.015 -0.101,0.01 -0.1,0.003 -0.1,-0.003 -0.101,-0.01 -0.099,-0.015 -0.098,-0.022 -0.096,-0.028 -0.095,-0.034 -0.092,-0.04 -0.09,-0.046 -0.086,-0.051 -0.083,-0.057 -0.08,-0.061 -0.075,-0.067 -0.071,-0.071 -0.067,-0.075 -0.061,-0.08 -0.057,-0.083 -0.051,-0.086 -0.046,-0.09 -0.04,-0.092 -0.034,-0.095 -0.028,-0.096 -0.022,-0.098 -0.015,-0.099 -0.01,-0.101 -0.003,-0.1 z"
     id="path950" />
  <path
     style="fill:none;stroke:#000000;stroke-width:0.0254;stroke-miterlimit:4;stroke-dasharray:none"
     d="m 252.75,-249.75 h 10 v 25 h -10 z"
     id="path948" />
  <path
     style="fill:none;stroke:#000000;stroke-width:0.0254;stroke-miterlimit:4;stroke-dasharray:none"
     d="M 237.5,-253.75 H 250 v 23 h -12.5 z"
     id="path946" />
  <path
     style="fill:none;stroke:#000000;stroke-width:0.0254;stroke-miterlimit:4;stroke-dasharray:none"
     d="m 242.752,-256.8128 0.006,-0.0625 0.01,-0.0621 0.013,-0.0613 0.018,-0.0603 0.021,-0.0591 0.025,-0.0577 0.029,-0.056 0.032,-0.054 0.035,-0.052 0.038,-0.0496 0.042,-0.0471 0.044,-0.0445 0.048,-0.0415 0.049,-0.0385 0.052,-0.0353 0.054,-0.032 0.056,-0.0285 0.058,-0.025 0.059,-0.0212 0.06,-0.0176 0.062,-0.0137 0.062,-0.01 0.062,-0.006 0.063,-0.002 0.063,0.002 0.062,0.006 0.062,0.01 0.062,0.0137 0.06,0.0176 0.059,0.0212 0.058,0.025 0.056,0.0285 0.054,0.032 0.052,0.0353 0.049,0.0385 0.048,0.0415 0.044,0.0445 0.042,0.0471 0.038,0.0496 0.035,0.052 0.032,0.054 0.029,0.056 0.025,0.0577 0.021,0.0591 0.018,0.0603 0.013,0.0613 0.01,0.0621 0.006,0.0625 0.002,0.0628 -0.002,0.0628 -0.006,0.0625 -0.01,0.0621 -0.013,0.0613 -0.018,0.0603 -0.021,0.0591 -0.025,0.0577 -0.029,0.056 -0.032,0.054 -0.035,0.052 -0.038,0.0496 -0.042,0.0472 -0.044,0.0444 -0.048,0.0415 -0.049,0.0385 -0.052,0.0353 -0.054,0.032 -0.056,0.0285 -0.058,0.025 -0.059,0.0213 -0.06,0.0175 -0.062,0.0137 -0.062,0.01 -0.062,0.006 -0.063,0.002 -0.063,-0.002 -0.062,-0.006 -0.062,-0.01 -0.062,-0.0137 -0.06,-0.0175 -0.059,-0.0213 -0.058,-0.025 -0.056,-0.0285 -0.054,-0.032 -0.052,-0.0353 -0.049,-0.0385 -0.048,-0.0415 -0.044,-0.0444 -0.042,-0.0472 -0.038,-0.0496 -0.035,-0.052 -0.032,-0.054 -0.029,-0.056 -0.025,-0.0577 -0.021,-0.0591 -0.018,-0.0603 -0.013,-0.0613 -0.01,-0.0621 -0.006,-0.0625 -0.002,-0.0628 z"
     id="path944" />
  <path
     style="fill:none;stroke:#000000;stroke-width:0.0254;stroke-miterlimit:4;stroke-dasharray:none"
     d="m 242.752,-228.81281 0.006,-0.0625 0.01,-0.062 0.013,-0.0613 0.018,-0.0603 0.021,-0.0591 0.025,-0.0576 0.029,-0.056 0.032,-0.0541 0.035,-0.052 0.038,-0.0496 0.042,-0.0471 0.044,-0.0444 0.048,-0.0416 0.049,-0.0385 0.052,-0.0353 0.054,-0.032 0.056,-0.0285 0.058,-0.0249 0.059,-0.0213 0.06,-0.0175 0.062,-0.0137 0.062,-0.01 0.062,-0.006 0.063,-0.002 0.063,0.002 0.062,0.006 0.062,0.01 0.062,0.0137 0.06,0.0175 0.059,0.0213 0.058,0.0249 0.056,0.0285 0.054,0.032 0.052,0.0353 0.049,0.0385 0.048,0.0416 0.044,0.0444 0.042,0.0471 0.038,0.0496 0.035,0.052 0.032,0.0541 0.029,0.056 0.025,0.0576 0.021,0.0591 0.018,0.0603 0.013,0.0613 0.01,0.062 0.006,0.0625 0.002,0.0628 -0.002,0.0628 -0.006,0.0625 -0.01,0.0621 -0.013,0.0613 -0.018,0.0603 -0.021,0.0591 -0.025,0.0576 -0.029,0.056 -0.032,0.0541 -0.035,0.052 -0.038,0.0496 -0.042,0.0471 -0.044,0.0444 -0.048,0.0416 -0.049,0.0385 -0.052,0.0353 -0.054,0.032 -0.056,0.0285 -0.058,0.0249 -0.059,0.0213 -0.06,0.0175 -0.062,0.0137 -0.062,0.01 -0.062,0.006 -0.063,0.002 -0.063,-0.002 -0.062,-0.006 -0.062,-0.01 -0.062,-0.0137 -0.06,-0.0175 -0.059,-0.0213 -0.058,-0.0249 -0.056,-0.0285 -0.054,-0.032 -0.052,-0.0353 -0.049,-0.0385 -0.048,-0.0416 -0.044,-0.0444 -0.042,-0.0471 -0.038,-0.0496 -0.035,-0.052 -0.032,-0.0541 -0.029,-0.056 -0.025,-0.0576 -0.021,-0.0591 -0.018,-0.0603 -0.013,-0.0613 -0.01,-0.0621 -0.006,-0.0625 -0.002,-0.0628 z"
     id="path942" />
  <path
     style="fill:none;stroke:#000000;stroke-width:0.0254;stroke-miterlimit:4;stroke-dasharray:none"
     d="m 201.75,-196.75 h 11 v 35 h -11 z"
     id="path940" />
  <path
     style="fill:none;stroke:#000000;stroke-width:0.0254;stroke-miterlimit:4;stroke-dasharray:none"
     d="m 186.375,-197.48 h 12.75 v 23.46 h -12.75 z"
     id="path938" />
  <path
     style="fill:none;stroke:#000000;stroke-width:0.0254;stroke-miterlimit:4;stroke-dasharray:none"
     d="m 191.752,-199.8128 0.006,-0.0625 0.01,-0.0621 0.013,-0.0613 0.018,-0.0603 0.021,-0.0591 0.025,-0.0577 0.029,-0.056 0.032,-0.054 0.035,-0.052 0.038,-0.0496 0.042,-0.0472 0.044,-0.0444 0.048,-0.0415 0.049,-0.0385 0.052,-0.0353 0.054,-0.032 0.056,-0.0285 0.058,-0.025 0.059,-0.0213 0.06,-0.0175 0.062,-0.0137 0.062,-0.01 0.062,-0.006 0.063,-0.002 0.063,0.002 0.062,0.006 0.062,0.01 0.062,0.0137 0.06,0.0175 0.059,0.0213 0.058,0.025 0.056,0.0285 0.054,0.032 0.052,0.0353 0.049,0.0385 0.048,0.0415 0.044,0.0444 0.042,0.0472 0.038,0.0496 0.035,0.052 0.032,0.054 0.029,0.056 0.025,0.0577 0.021,0.0591 0.018,0.0603 0.013,0.0613 0.01,0.0621 0.006,0.0625 0.002,0.0628 -0.002,0.0628 -0.006,0.0625 -0.01,0.0621 -0.013,0.0613 -0.018,0.0603 -0.021,0.0591 -0.025,0.0577 -0.029,0.056 -0.032,0.054 -0.035,0.052 -0.038,0.0496 -0.042,0.0471 -0.044,0.0445 -0.048,0.0415 -0.049,0.0385 -0.052,0.0353 -0.054,0.032 -0.056,0.0285 -0.058,0.025 -0.059,0.0212 -0.06,0.0176 -0.062,0.0137 -0.062,0.01 -0.062,0.006 -0.063,0.002 -0.063,-0.002 -0.062,-0.006 -0.062,-0.01 -0.062,-0.0137 -0.06,-0.0176 -0.059,-0.0212 -0.058,-0.025 -0.056,-0.0285 -0.054,-0.032 -0.052,-0.0353 -0.049,-0.0385 -0.048,-0.0415 -0.044,-0.0445 -0.042,-0.0471 -0.038,-0.0496 -0.035,-0.052 -0.032,-0.054 -0.029,-0.056 -0.025,-0.0577 -0.021,-0.0591 -0.018,-0.0603 -0.013,-0.0613 -0.01,-0.0621 -0.006,-0.0625 -0.002,-0.0628 z"
     id="path936" />
  <path
     style="fill:none;stroke:#000000;stroke-width:0.0254;stroke-miterlimit:4;stroke-dasharray:none"
     d="m 191.752,-171.8128 0.006,-0.0625 0.01,-0.0621 0.013,-0.0613 0.018,-0.0603 0.021,-0.0591 0.025,-0.0577 0.029,-0.056 0.032,-0.054 0.035,-0.052 0.038,-0.0496 0.042,-0.0472 0.044,-0.0444 0.048,-0.0415 0.049,-0.0385 0.052,-0.0353 0.054,-0.032 0.056,-0.0285 0.058,-0.025 0.059,-0.0213 0.06,-0.0175 0.062,-0.0137 0.062,-0.01 0.062,-0.006 0.063,-0.002 0.063,0.002 0.062,0.006 0.062,0.01 0.062,0.0137 0.06,0.0175 0.059,0.0213 0.058,0.025 0.056,0.0285 0.054,0.032 0.052,0.0353 0.049,0.0385 0.048,0.0415 0.044,0.0444 0.042,0.0472 0.038,0.0496 0.035,0.052 0.032,0.054 0.029,0.056 0.025,0.0577 0.021,0.0591 0.018,0.0603 0.013,0.0613 0.01,0.0621 0.006,0.0625 0.002,0.0628 -0.002,0.0628 -0.006,0.0625 -0.01,0.0621 -0.013,0.0613 -0.018,0.0603 -0.021,0.0591 -0.025,0.0577 -0.029,0.056 -0.032,0.054 -0.035,0.052 -0.038,0.0496 -0.042,0.0471 -0.044,0.0445 -0.048,0.0415 -0.049,0.0385 -0.052,0.0353 -0.054,0.032 -0.056,0.0285 -0.058,0.025 -0.059,0.0212 -0.06,0.0176 -0.062,0.0137 -0.062,0.01 -0.062,0.006 -0.063,0.002 -0.063,-0.002 -0.062,-0.006 -0.062,-0.01 -0.062,-0.0137 -0.06,-0.0176 -0.059,-0.0212 -0.058,-0.025 -0.056,-0.0285 -0.054,-0.032 -0.052,-0.0353 -0.049,-0.0385 -0.048,-0.0415 -0.044,-0.0445 -0.042,-0.0471 -0.038,-0.0496 -0.035,-0.052 -0.032,-0.054 -0.029,-0.056 -0.025,-0.0577 -0.021,-0.0591 -0.018,-0.0603 -0.013,-0.0613 -0.01,-0.0621 -0.006,-0.0625 -0.002,-0.0628 z"
     id="path934" />
  <path
     style="fill:none;stroke:#000000;stroke-width:0.0254;stroke-miterlimit:4;stroke-dasharray:none"
     d="m 185.153,-260.8505 0.01,-0.1 0.015,-0.0993 0.022,-0.0981 0.028,-0.0965 0.034,-0.0946 0.04,-0.0922 0.046,-0.0896 0.051,-0.0865 0.057,-0.0831 0.061,-0.0795 0.067,-0.0754 0.071,-0.071 0.075,-0.0665 0.08,-0.0616 0.083,-0.0565 0.086,-0.0512 0.09,-0.0456 0.092,-0.0399 0.095,-0.0341 0.096,-0.028 0.098,-0.022 0.099,-0.0157 0.101,-0.009 0.1,-0.003 0.1,0.003 0.101,0.009 0.099,0.0157 0.098,0.022 0.096,0.028 0.095,0.0341 0.092,0.0399 0.09,0.0456 0.086,0.0512 0.083,0.0565 0.08,0.0616 0.075,0.0665 0.071,0.071 0.067,0.0754 0.061,0.0795 0.057,0.0831 0.051,0.0865 0.046,0.0896 0.04,0.0922 0.034,0.0946 0.028,0.0965 0.022,0.0981 0.015,0.0993 0.01,0.1 0.003,0.1005 -0.003,0.1005 -0.01,0.1 -0.015,0.0993 -0.022,0.0981 -0.028,0.0965 -0.034,0.0946 -0.04,0.0923 -0.046,0.0895 -0.051,0.0865 -0.057,0.0832 -0.061,0.0794 -0.067,0.0754 -0.071,0.0711 -0.075,0.0664 -0.08,0.0616 -0.083,0.0565 -0.086,0.0512 -0.09,0.0456 -0.092,0.04 -0.095,0.034 -0.096,0.028 -0.098,0.022 -0.099,0.0157 -0.101,0.009 -0.1,0.003 -0.1,-0.003 -0.101,-0.009 -0.099,-0.0157 -0.098,-0.022 -0.096,-0.028 -0.095,-0.034 -0.092,-0.04 -0.09,-0.0456 -0.086,-0.0512 -0.083,-0.0565 -0.08,-0.0616 -0.075,-0.0664 -0.071,-0.0711 -0.067,-0.0754 -0.061,-0.0794 -0.057,-0.0832 -0.051,-0.0865 -0.046,-0.0895 -0.04,-0.0923 -0.034,-0.0946 -0.028,-0.0965 -0.022,-0.0981 -0.015,-0.0993 -0.01,-0.1 -0.003,-0.1005 z"
     id="path932" />
  <path
     style="fill:none;stroke:#000000;stroke-width:0.0254;stroke-miterlimit:4;stroke-dasharray:none"
     d="m 185.153,-158.8505 0.01,-0.1 0.015,-0.0993 0.022,-0.0981 0.028,-0.0965 0.034,-0.0946 0.04,-0.0922 0.046,-0.0896 0.051,-0.0865 0.057,-0.0832 0.061,-0.0794 0.067,-0.0754 0.071,-0.0711 0.075,-0.0664 0.08,-0.0616 0.083,-0.0565 0.086,-0.0512 0.09,-0.0456 0.092,-0.0399 0.095,-0.0341 0.096,-0.028 0.098,-0.022 0.099,-0.0157 0.101,-0.009 0.1,-0.003 0.1,0.003 0.101,0.009 0.099,0.0157 0.098,0.022 0.096,0.028 0.095,0.0341 0.092,0.0399 0.09,0.0456 0.086,0.0512 0.083,0.0565 0.08,0.0616 0.075,0.0664 0.071,0.0711 0.067,0.0754 0.061,0.0794 0.057,0.0832 0.051,0.0865 0.046,0.0896 0.04,0.0922 0.034,0.0946 0.028,0.0965 0.022,0.0981 0.015,0.0993 0.01,0.1 0.003,0.1005 -0.003,0.1005 -0.01,0.1 -0.015,0.0993 -0.022,0.0981 -0.028,0.0965 -0.034,0.0946 -0.04,0.0922 -0.046,0.0896 -0.051,0.0865 -0.057,0.0832 -0.061,0.0794 -0.067,0.0754 -0.071,0.0711 -0.075,0.0664 -0.08,0.0616 -0.083,0.0565 -0.086,0.0512 -0.09,0.0456 -0.092,0.0399 -0.095,0.0341 -0.096,0.028 -0.098,0.022 -0.099,0.0157 -0.101,0.009 -0.1,0.003 -0.1,-0.003 -0.101,-0.009 -0.099,-0.0157 -0.098,-0.022 -0.096,-0.028 -0.095,-0.0341 -0.092,-0.0399 -0.09,-0.0456 -0.086,-0.0512 -0.083,-0.0565 -0.08,-0.0616 -0.075,-0.0664 -0.071,-0.0711 -0.067,-0.0754 -0.061,-0.0794 -0.057,-0.0832 -0.051,-0.0865 -0.046,-0.0896 -0.04,-0.0922 -0.034,-0.0946 -0.028,-0.0965 -0.022,-0.0981 -0.015,-0.0993 -0.01,-0.1 -0.003,-0.1005 z"
     id="path930" />
  <path
     style="fill:none;stroke:#000000;stroke-width:0.0254;stroke-miterlimit:4;stroke-dasharray:none"
     d="m 185.153,-208.8505 0.01,-0.1 0.015,-0.0993 0.022,-0.0981 0.028,-0.0965 0.034,-0.0946 0.04,-0.0923 0.046,-0.0895 0.051,-0.0865 0.057,-0.0832 0.061,-0.0794 0.067,-0.0754 0.071,-0.0711 0.075,-0.0664 0.08,-0.0616 0.083,-0.0565 0.086,-0.0512 0.09,-0.0456 0.092,-0.04 0.095,-0.034 0.096,-0.028 0.098,-0.022 0.099,-0.0157 0.101,-0.009 0.1,-0.003 0.1,0.003 0.101,0.009 0.099,0.0157 0.098,0.022 0.096,0.028 0.095,0.034 0.092,0.04 0.09,0.0456 0.086,0.0512 0.083,0.0565 0.08,0.0616 0.075,0.0664 0.071,0.0711 0.067,0.0754 0.061,0.0794 0.057,0.0832 0.051,0.0865 0.046,0.0895 0.04,0.0923 0.034,0.0946 0.028,0.0965 0.022,0.0981 0.015,0.0993 0.01,0.1 0.003,0.1005 -0.003,0.1005 -0.01,0.1 -0.015,0.0993 -0.022,0.0981 -0.028,0.0965 -0.034,0.0946 -0.04,0.0922 -0.046,0.0896 -0.051,0.0865 -0.057,0.0831 -0.061,0.0795 -0.067,0.0754 -0.071,0.071 -0.075,0.0665 -0.08,0.0616 -0.083,0.0565 -0.086,0.0512 -0.09,0.0456 -0.092,0.0399 -0.095,0.0341 -0.096,0.028 -0.098,0.022 -0.099,0.0157 -0.101,0.009 -0.1,0.003 -0.1,-0.003 -0.101,-0.009 -0.099,-0.0157 -0.098,-0.022 -0.096,-0.028 -0.095,-0.0341 -0.092,-0.0399 -0.09,-0.0456 -0.086,-0.0512 -0.083,-0.0565 -0.08,-0.0616 -0.075,-0.0665 -0.071,-0.071 -0.067,-0.0754 -0.061,-0.0795 -0.057,-0.0831 -0.051,-0.0865 -0.046,-0.0896 -0.04,-0.0922 -0.034,-0.0946 -0.028,-0.0965 -0.022,-0.0981 -0.015,-0.0993 -0.01,-0.1 -0.003,-0.1005 z"
     id="path928" />
  <path
     style="fill:none;stroke:#000000;stroke-width:0.0254;stroke-miterlimit:4;stroke-dasharray:none"
     d="m 185.153,-123.85 0.01,-0.101 0.015,-0.099 0.022,-0.098 0.028,-0.096 0.034,-0.095 0.04,-0.092 0.046,-0.09 0.051,-0.086 0.057,-0.083 0.061,-0.08 0.067,-0.075 0.071,-0.071 0.075,-0.067 0.08,-0.061 0.083,-0.057 0.086,-0.051 0.09,-0.046 0.092,-0.04 0.095,-0.034 0.096,-0.028 0.098,-0.022 0.099,-0.015 0.101,-0.01 0.1,-0.003 0.1,0.003 0.101,0.01 0.099,0.015 0.098,0.022 0.096,0.028 0.095,0.034 0.092,0.04 0.09,0.046 0.086,0.051 0.083,0.057 0.08,0.061 0.075,0.067 0.071,0.071 0.067,0.075 0.061,0.08 0.057,0.083 0.051,0.086 0.046,0.09 0.04,0.092 0.034,0.095 0.028,0.096 0.022,0.098 0.015,0.099 0.01,0.101 0.003,0.1 -0.003,0.1 -0.01,0.101 -0.015,0.099 -0.022,0.098 -0.028,0.096 -0.034,0.095 -0.04,0.092 -0.046,0.09 -0.051,0.086 -0.057,0.083 -0.061,0.08 -0.067,0.075 -0.071,0.071 -0.075,0.067 -0.08,0.061 -0.083,0.057 -0.086,0.051 -0.09,0.046 -0.092,0.04 -0.095,0.034 -0.096,0.028 -0.098,0.022 -0.099,0.015 -0.101,0.01 -0.1,0.003 -0.1,-0.003 -0.101,-0.01 -0.099,-0.015 -0.098,-0.022 -0.096,-0.028 -0.095,-0.034 -0.092,-0.04 -0.09,-0.046 -0.086,-0.051 -0.083,-0.057 -0.08,-0.061 -0.075,-0.067 -0.071,-0.071 -0.067,-0.075 -0.061,-0.08 -0.057,-0.083 -0.051,-0.086 -0.046,-0.09 -0.04,-0.092 -0.034,-0.095 -0.028,-0.096 -0.022,-0.098 -0.015,-0.099 -0.01,-0.101 -0.003,-0.1 z"
     id="path926" />
  <path
     style="fill:none;stroke:#000000;stroke-width:0.0254;stroke-miterlimit:4;stroke-dasharray:none"
     d="m 143.729,-238.01343 0.526,-2.47165 1.027,-2.30841 1.486,-2.04428 1.877,-1.69081 2.189,-1.26342 2.403,-0.7809 2.513,-0.2641 2.513,0.2641 2.403,0.7809 2.189,1.26342 1.877,1.69081 1.486,2.04428 1.027,2.30841 0.526,2.47165 v 2.52686 l -0.526,2.47165 -1.027,2.30841 -1.486,2.04428 -1.877,1.69081 -2.189,1.26342 -2.403,0.7809 -2.513,0.2641 -2.513,-0.2641 -2.403,-0.7809 -2.189,-1.26342 -1.877,-1.69081 -1.486,-2.04428 -1.027,-2.30841 -0.526,-2.47165 z"
     id="path924" />
  <path
     style="fill:none;stroke:#000000;stroke-width:0.0254;stroke-miterlimit:4;stroke-dasharray:none"
     d="m 153.98,-234.64032 1.77,0.64432 1.77,-0.64432 0.942,-1.63145 -0.327,-1.85523 -1.443,-1.21091 h -1.884 l -1.443,1.21091 -0.327,1.85523 z"
     id="path922" />
  <path
     style="fill:none;stroke:#000000;stroke-width:0.0254;stroke-miterlimit:4;stroke-dasharray:none"
     d="m 153.287,-237.40997 0.255,-0.61502 0.405,-0.52813 0.528,-0.40524 0.615,-0.25474 0.66,-0.0869 0.66,0.0869 0.615,0.25474 0.528,0.40524 0.405,0.52813 0.255,0.61502 0.045,0.34416 -2.824,2.82422 -0.344,-0.0453 -0.615,-0.25474 -0.528,-0.40524 -0.405,-0.52813 -0.255,-0.61502 -0.087,-0.65997 z"
     id="path920" />
  <path
     style="fill:none;stroke:#000000;stroke-width:0.0254;stroke-miterlimit:4;stroke-dasharray:none"
     d="m 154.752,-256.8128 0.006,-0.0625 0.01,-0.0621 0.013,-0.0613 0.018,-0.0603 0.021,-0.0591 0.025,-0.0577 0.029,-0.056 0.032,-0.054 0.035,-0.052 0.038,-0.0496 0.042,-0.0471 0.044,-0.0445 0.048,-0.0415 0.049,-0.0385 0.052,-0.0353 0.054,-0.032 0.056,-0.0285 0.058,-0.025 0.059,-0.0212 0.06,-0.0176 0.062,-0.0137 0.062,-0.01 0.062,-0.006 0.063,-0.002 0.063,0.002 0.062,0.006 0.062,0.01 0.062,0.0137 0.06,0.0176 0.059,0.0212 0.058,0.025 0.056,0.0285 0.054,0.032 0.052,0.0353 0.049,0.0385 0.048,0.0415 0.044,0.0445 0.042,0.0471 0.038,0.0496 0.035,0.052 0.032,0.054 0.029,0.056 0.025,0.0577 0.021,0.0591 0.018,0.0603 0.013,0.0613 0.01,0.0621 0.006,0.0625 0.002,0.0628 -0.002,0.0628 -0.006,0.0625 -0.01,0.0621 -0.013,0.0613 -0.018,0.0603 -0.021,0.0591 -0.025,0.0577 -0.029,0.056 -0.032,0.054 -0.035,0.052 -0.038,0.0496 -0.042,0.0472 -0.044,0.0444 -0.048,0.0415 -0.049,0.0385 -0.052,0.0353 -0.054,0.032 -0.056,0.0285 -0.058,0.025 -0.059,0.0213 -0.06,0.0175 -0.062,0.0137 -0.062,0.01 -0.062,0.006 -0.063,0.002 -0.063,-0.002 -0.062,-0.006 -0.062,-0.01 -0.062,-0.0137 -0.06,-0.0175 -0.059,-0.0213 -0.058,-0.025 -0.056,-0.0285 -0.054,-0.032 -0.052,-0.0353 -0.049,-0.0385 -0.048,-0.0415 -0.044,-0.0444 -0.042,-0.0472 -0.038,-0.0496 -0.035,-0.052 -0.032,-0.054 -0.029,-0.056 -0.025,-0.0577 -0.021,-0.0591 -0.018,-0.0603 -0.013,-0.0613 -0.01,-0.0621 -0.006,-0.0625 -0.002,-0.0628 z"
     id="path918" />
  <path
     style="fill:none;stroke:#000000;stroke-width:0.0254;stroke-miterlimit:4;stroke-dasharray:none"
     d="m 124.153,-260.8505 0.01,-0.1 0.015,-0.0993 0.022,-0.0981 0.028,-0.0965 0.034,-0.0946 0.04,-0.0922 0.046,-0.0896 0.051,-0.0865 0.057,-0.0831 0.061,-0.0795 0.067,-0.0754 0.071,-0.071 0.075,-0.0665 0.08,-0.0616 0.083,-0.0565 0.086,-0.0512 0.09,-0.0456 0.092,-0.0399 0.095,-0.0341 0.096,-0.028 0.098,-0.022 0.099,-0.0157 0.101,-0.009 0.1,-0.003 0.1,0.003 0.101,0.009 0.099,0.0157 0.098,0.022 0.096,0.028 0.095,0.0341 0.092,0.0399 0.09,0.0456 0.086,0.0512 0.083,0.0565 0.08,0.0616 0.075,0.0665 0.071,0.071 0.067,0.0754 0.061,0.0795 0.057,0.0831 0.051,0.0865 0.046,0.0896 0.04,0.0922 0.034,0.0946 0.028,0.0965 0.022,0.0981 0.015,0.0993 0.01,0.1 0.003,0.1005 -0.003,0.1005 -0.01,0.1 -0.015,0.0993 -0.022,0.0981 -0.028,0.0965 -0.034,0.0946 -0.04,0.0923 -0.046,0.0895 -0.051,0.0865 -0.057,0.0832 -0.061,0.0794 -0.067,0.0754 -0.071,0.0711 -0.075,0.0664 -0.08,0.0616 -0.083,0.0565 -0.086,0.0512 -0.09,0.0456 -0.092,0.04 -0.095,0.034 -0.096,0.028 -0.098,0.022 -0.099,0.0157 -0.101,0.009 -0.1,0.003 -0.1,-0.003 -0.101,-0.009 -0.099,-0.0157 -0.098,-0.022 -0.096,-0.028 -0.095,-0.034 -0.092,-0.04 -0.09,-0.0456 -0.086,-0.0512 -0.083,-0.0565 -0.08,-0.0616 -0.075,-0.0664 -0.071,-0.0711 -0.067,-0.0754 -0.061,-0.0794 -0.057,-0.0832 -0.051,-0.0865 -0.046,-0.0895 -0.04,-0.0923 -0.034,-0.0946 -0.028,-0.0965 -0.022,-0.0981 -0.015,-0.0993 -0.01,-0.1 -0.003,-0.1005 z"
     id="path916" />
  <path
     style="fill:none;stroke:#000000;stroke-width:0.0254;stroke-miterlimit:4;stroke-dasharray:none"
     d="m 124.153,-158.8505 0.01,-0.1 0.015,-0.0993 0.022,-0.0981 0.028,-0.0965 0.034,-0.0946 0.04,-0.0922 0.046,-0.0896 0.051,-0.0865 0.057,-0.0832 0.061,-0.0794 0.067,-0.0754 0.071,-0.0711 0.075,-0.0664 0.08,-0.0616 0.083,-0.0565 0.086,-0.0512 0.09,-0.0456 0.092,-0.0399 0.095,-0.0341 0.096,-0.028 0.098,-0.022 0.099,-0.0157 0.101,-0.009 0.1,-0.003 0.1,0.003 0.101,0.009 0.099,0.0157 0.098,0.022 0.096,0.028 0.095,0.0341 0.092,0.0399 0.09,0.0456 0.086,0.0512 0.083,0.0565 0.08,0.0616 0.075,0.0664 0.071,0.0711 0.067,0.0754 0.061,0.0794 0.057,0.0832 0.051,0.0865 0.046,0.0896 0.04,0.0922 0.034,0.0946 0.028,0.0965 0.022,0.0981 0.015,0.0993 0.01,0.1 0.003,0.1005 -0.003,0.1005 -0.01,0.1 -0.015,0.0993 -0.022,0.0981 -0.028,0.0965 -0.034,0.0946 -0.04,0.0922 -0.046,0.0896 -0.051,0.0865 -0.057,0.0832 -0.061,0.0794 -0.067,0.0754 -0.071,0.0711 -0.075,0.0664 -0.08,0.0616 -0.083,0.0565 -0.086,0.0512 -0.09,0.0456 -0.092,0.0399 -0.095,0.0341 -0.096,0.028 -0.098,0.022 -0.099,0.0157 -0.101,0.009 -0.1,0.003 -0.1,-0.003 -0.101,-0.009 -0.099,-0.0157 -0.098,-0.022 -0.096,-0.028 -0.095,-0.0341 -0.092,-0.0399 -0.09,-0.0456 -0.086,-0.0512 -0.083,-0.0565 -0.08,-0.0616 -0.075,-0.0664 -0.071,-0.0711 -0.067,-0.0754 -0.061,-0.0794 -0.057,-0.0832 -0.051,-0.0865 -0.046,-0.0896 -0.04,-0.0922 -0.034,-0.0946 -0.028,-0.0965 -0.022,-0.0981 -0.015,-0.0993 -0.01,-0.1 -0.003,-0.1005 z"
     id="path914" />
  <path
     style="fill:none;stroke:#000000;stroke-width:0.0254;stroke-miterlimit:4;stroke-dasharray:none"
     d="m 124.153,-123.85 0.01,-0.101 0.015,-0.099 0.022,-0.098 0.028,-0.096 0.034,-0.095 0.04,-0.092 0.046,-0.09 0.051,-0.086 0.057,-0.083 0.061,-0.08 0.067,-0.075 0.071,-0.071 0.075,-0.067 0.08,-0.061 0.083,-0.057 0.086,-0.051 0.09,-0.046 0.092,-0.04 0.095,-0.034 0.096,-0.028 0.098,-0.022 0.099,-0.015 0.101,-0.01 0.1,-0.003 0.1,0.003 0.101,0.01 0.099,0.015 0.098,0.022 0.096,0.028 0.095,0.034 0.092,0.04 0.09,0.046 0.086,0.051 0.083,0.057 0.08,0.061 0.075,0.067 0.071,0.071 0.067,0.075 0.061,0.08 0.057,0.083 0.051,0.086 0.046,0.09 0.04,0.092 0.034,0.095 0.028,0.096 0.022,0.098 0.015,0.099 0.01,0.101 0.003,0.1 -0.003,0.1 -0.01,0.101 -0.015,0.099 -0.022,0.098 -0.028,0.096 -0.034,0.095 -0.04,0.092 -0.046,0.09 -0.051,0.086 -0.057,0.083 -0.061,0.08 -0.067,0.075 -0.071,0.071 -0.075,0.067 -0.08,0.061 -0.083,0.057 -0.086,0.051 -0.09,0.046 -0.092,0.04 -0.095,0.034 -0.096,0.028 -0.098,0.022 -0.099,0.015 -0.101,0.01 -0.1,0.003 -0.1,-0.003 -0.101,-0.01 -0.099,-0.015 -0.098,-0.022 -0.096,-0.028 -0.095,-0.034 -0.092,-0.04 -0.09,-0.046 -0.086,-0.051 -0.083,-0.057 -0.08,-0.061 -0.075,-0.067 -0.071,-0.071 -0.067,-0.075 -0.061,-0.08 -0.057,-0.083 -0.051,-0.086 -0.046,-0.09 -0.04,-0.092 -0.034,-0.095 -0.028,-0.096 -0.022,-0.098 -0.015,-0.099 -0.01,-0.101 -0.003,-0.1 z"
     id="path912" />
  <path
     style="fill:none;stroke:#000000;stroke-width:0.0254;stroke-miterlimit:4;stroke-dasharray:none"
     d="m 124.153,-208.8505 0.01,-0.1 0.015,-0.0993 0.022,-0.0981 0.028,-0.0965 0.034,-0.0946 0.04,-0.0923 0.046,-0.0895 0.051,-0.0865 0.057,-0.0832 0.061,-0.0794 0.067,-0.0754 0.071,-0.0711 0.075,-0.0664 0.08,-0.0616 0.083,-0.0565 0.086,-0.0512 0.09,-0.0456 0.092,-0.04 0.095,-0.034 0.096,-0.028 0.098,-0.022 0.099,-0.0157 0.101,-0.009 0.1,-0.003 0.1,0.003 0.101,0.009 0.099,0.0157 0.098,0.022 0.096,0.028 0.095,0.034 0.092,0.04 0.09,0.0456 0.086,0.0512 0.083,0.0565 0.08,0.0616 0.075,0.0664 0.071,0.0711 0.067,0.0754 0.061,0.0794 0.057,0.0832 0.051,0.0865 0.046,0.0895 0.04,0.0923 0.034,0.0946 0.028,0.0965 0.022,0.0981 0.015,0.0993 0.01,0.1 0.003,0.1005 -0.003,0.1005 -0.01,0.1 -0.015,0.0993 -0.022,0.0981 -0.028,0.0965 -0.034,0.0946 -0.04,0.0922 -0.046,0.0896 -0.051,0.0865 -0.057,0.0831 -0.061,0.0795 -0.067,0.0754 -0.071,0.071 -0.075,0.0665 -0.08,0.0616 -0.083,0.0565 -0.086,0.0512 -0.09,0.0456 -0.092,0.0399 -0.095,0.0341 -0.096,0.028 -0.098,0.022 -0.099,0.0157 -0.101,0.009 -0.1,0.003 -0.1,-0.003 -0.101,-0.009 -0.099,-0.0157 -0.098,-0.022 -0.096,-0.028 -0.095,-0.0341 -0.092,-0.0399 -0.09,-0.0456 -0.086,-0.0512 -0.083,-0.0565 -0.08,-0.0616 -0.075,-0.0665 -0.071,-0.071 -0.067,-0.0754 -0.061,-0.0795 -0.057,-0.0831 -0.051,-0.0865 -0.046,-0.0896 -0.04,-0.0922 -0.034,-0.0946 -0.028,-0.0965 -0.022,-0.0981 -0.015,-0.0993 -0.01,-0.1 -0.003,-0.1005 z"
     id="path910" />
  <path
     style="fill:none;stroke:#000000;stroke-width:0.0254;stroke-miterlimit:4;stroke-dasharray:none"
     d="m 120.25,-116.75 v -150 h -150 v 150 z"
     id="path908" />
  <path
     style="fill:none;stroke:#000000;stroke-width:0.0254;stroke-miterlimit:4;stroke-dasharray:none"
     d="m 113.653,-123.85 0.01,-0.101 0.015,-0.099 0.022,-0.098 0.028,-0.096 0.034,-0.095 0.04,-0.092 0.046,-0.09 0.051,-0.086 0.057,-0.083 0.061,-0.08 0.067,-0.075 0.071,-0.071 0.075,-0.067 0.08,-0.061 0.083,-0.057 0.086,-0.051 0.09,-0.046 0.092,-0.04 0.095,-0.034 0.096,-0.028 0.098,-0.022 0.099,-0.015 0.101,-0.01 0.1,-0.003 0.1,0.003 0.101,0.01 0.099,0.015 0.098,0.022 0.096,0.028 0.095,0.034 0.092,0.04 0.09,0.046 0.086,0.051 0.083,0.057 0.08,0.061 0.075,0.067 0.071,0.071 0.067,0.075 0.061,0.08 0.057,0.083 0.051,0.086 0.046,0.09 0.04,0.092 0.034,0.095 0.028,0.096 0.022,0.098 0.015,0.099 0.01,0.101 0.003,0.1 -0.003,0.1 -0.01,0.101 -0.015,0.099 -0.022,0.098 -0.028,0.096 -0.034,0.095 -0.04,0.092 -0.046,0.09 -0.051,0.086 -0.057,0.083 -0.061,0.08 -0.067,0.075 -0.071,0.071 -0.075,0.067 -0.08,0.061 -0.083,0.057 -0.086,0.051 -0.09,0.046 -0.092,0.04 -0.095,0.034 -0.096,0.028 -0.098,0.022 -0.099,0.015 -0.101,0.01 -0.1,0.003 -0.1,-0.003 -0.101,-0.01 -0.099,-0.015 -0.098,-0.022 -0.096,-0.028 -0.095,-0.034 -0.092,-0.04 -0.09,-0.046 -0.086,-0.051 -0.083,-0.057 -0.08,-0.061 -0.075,-0.067 -0.071,-0.071 -0.067,-0.075 -0.061,-0.08 -0.057,-0.083 -0.051,-0.086 -0.046,-0.09 -0.04,-0.092 -0.034,-0.095 -0.028,-0.096 -0.022,-0.098 -0.015,-0.099 -0.01,-0.101 -0.003,-0.1 z"
     id="path906" />
  <path
     style="fill:none;stroke:#000000;stroke-width:0.0254;stroke-miterlimit:4;stroke-dasharray:none"
     d="m 113.653,-158.8505 0.01,-0.1 0.015,-0.0993 0.022,-0.0981 0.028,-0.0965 0.034,-0.0946 0.04,-0.0922 0.046,-0.0896 0.051,-0.0865 0.057,-0.0832 0.061,-0.0794 0.067,-0.0754 0.071,-0.0711 0.075,-0.0664 0.08,-0.0616 0.083,-0.0565 0.086,-0.0512 0.09,-0.0456 0.092,-0.0399 0.095,-0.0341 0.096,-0.028 0.098,-0.022 0.099,-0.0157 0.101,-0.009 0.1,-0.003 0.1,0.003 0.101,0.009 0.099,0.0157 0.098,0.022 0.096,0.028 0.095,0.0341 0.092,0.0399 0.09,0.0456 0.086,0.0512 0.083,0.0565 0.08,0.0616 0.075,0.0664 0.071,0.0711 0.067,0.0754 0.061,0.0794 0.057,0.0832 0.051,0.0865 0.046,0.0896 0.04,0.0922 0.034,0.0946 0.028,0.0965 0.022,0.0981 0.015,0.0993 0.01,0.1 0.003,0.1005 -0.003,0.1005 -0.01,0.1 -0.015,0.0993 -0.022,0.0981 -0.028,0.0965 -0.034,0.0946 -0.04,0.0922 -0.046,0.0896 -0.051,0.0865 -0.057,0.0832 -0.061,0.0794 -0.067,0.0754 -0.071,0.0711 -0.075,0.0664 -0.08,0.0616 -0.083,0.0565 -0.086,0.0512 -0.09,0.0456 -0.092,0.0399 -0.095,0.0341 -0.096,0.028 -0.098,0.022 -0.099,0.0157 -0.101,0.009 -0.1,0.003 -0.1,-0.003 -0.101,-0.009 -0.099,-0.0157 -0.098,-0.022 -0.096,-0.028 -0.095,-0.0341 -0.092,-0.0399 -0.09,-0.0456 -0.086,-0.0512 -0.083,-0.0565 -0.08,-0.0616 -0.075,-0.0664 -0.071,-0.0711 -0.067,-0.0754 -0.061,-0.0794 -0.057,-0.0832 -0.051,-0.0865 -0.046,-0.0896 -0.04,-0.0922 -0.034,-0.0946 -0.028,-0.0965 -0.022,-0.0981 -0.015,-0.0993 -0.01,-0.1 -0.003,-0.1005 z"
     id="path904" />
  <path
     style="fill:none;stroke:#000000;stroke-width:0.0254;stroke-miterlimit:4;stroke-dasharray:none"
     d="m 113.653,-208.8505 0.01,-0.1 0.015,-0.0993 0.022,-0.0981 0.028,-0.0965 0.034,-0.0946 0.04,-0.0923 0.046,-0.0895 0.051,-0.0865 0.057,-0.0832 0.061,-0.0794 0.067,-0.0754 0.071,-0.0711 0.075,-0.0664 0.08,-0.0616 0.083,-0.0565 0.086,-0.0512 0.09,-0.0456 0.092,-0.04 0.095,-0.034 0.096,-0.028 0.098,-0.022 0.099,-0.0157 0.101,-0.009 0.1,-0.003 0.1,0.003 0.101,0.009 0.099,0.0157 0.098,0.022 0.096,0.028 0.095,0.034 0.092,0.04 0.09,0.0456 0.086,0.0512 0.083,0.0565 0.08,0.0616 0.075,0.0664 0.071,0.0711 0.067,0.0754 0.061,0.0794 0.057,0.0832 0.051,0.0865 0.046,0.0895 0.04,0.0923 0.034,0.0946 0.028,0.0965 0.022,0.0981 0.015,0.0993 0.01,0.1 0.003,0.1005 -0.003,0.1005 -0.01,0.1 -0.015,0.0993 -0.022,0.0981 -0.028,0.0965 -0.034,0.0946 -0.04,0.0922 -0.046,0.0896 -0.051,0.0865 -0.057,0.0831 -0.061,0.0795 -0.067,0.0754 -0.071,0.071 -0.075,0.0665 -0.08,0.0616 -0.083,0.0565 -0.086,0.0512 -0.09,0.0456 -0.092,0.0399 -0.095,0.0341 -0.096,0.028 -0.098,0.022 -0.099,0.0157 -0.101,0.009 -0.1,0.003 -0.1,-0.003 -0.101,-0.009 -0.099,-0.0157 -0.098,-0.022 -0.096,-0.028 -0.095,-0.0341 -0.092,-0.0399 -0.09,-0.0456 -0.086,-0.0512 -0.083,-0.0565 -0.08,-0.0616 -0.075,-0.0665 -0.071,-0.071 -0.067,-0.0754 -0.061,-0.0795 -0.057,-0.0831 -0.051,-0.0865 -0.046,-0.0896 -0.04,-0.0922 -0.034,-0.0946 -0.028,-0.0965 -0.022,-0.0981 -0.015,-0.0993 -0.01,-0.1 -0.003,-0.1005 z"
     id="path902" />
  <path
     style="fill:none;stroke:#000000;stroke-width:0.0254;stroke-miterlimit:4;stroke-dasharray:none"
     d="m 113.653,-260.8505 0.01,-0.1 0.015,-0.0993 0.022,-0.0981 0.028,-0.0965 0.034,-0.0946 0.04,-0.0922 0.046,-0.0896 0.051,-0.0865 0.057,-0.0831 0.061,-0.0795 0.067,-0.0754 0.071,-0.071 0.075,-0.0665 0.08,-0.0616 0.083,-0.0565 0.086,-0.0512 0.09,-0.0456 0.092,-0.0399 0.095,-0.0341 0.096,-0.028 0.098,-0.022 0.099,-0.0157 0.101,-0.009 0.1,-0.003 0.1,0.003 0.101,0.009 0.099,0.0157 0.098,0.022 0.096,0.028 0.095,0.0341 0.092,0.0399 0.09,0.0456 0.086,0.0512 0.083,0.0565 0.08,0.0616 0.075,0.0665 0.071,0.071 0.067,0.0754 0.061,0.0795 0.057,0.0831 0.051,0.0865 0.046,0.0896 0.04,0.0922 0.034,0.0946 0.028,0.0965 0.022,0.0981 0.015,0.0993 0.01,0.1 0.003,0.1005 -0.003,0.1005 -0.01,0.1 -0.015,0.0993 -0.022,0.0981 -0.028,0.0965 -0.034,0.0946 -0.04,0.0923 -0.046,0.0895 -0.051,0.0865 -0.057,0.0832 -0.061,0.0794 -0.067,0.0754 -0.071,0.0711 -0.075,0.0664 -0.08,0.0616 -0.083,0.0565 -0.086,0.0512 -0.09,0.0456 -0.092,0.04 -0.095,0.034 -0.096,0.028 -0.098,0.022 -0.099,0.0157 -0.101,0.009 -0.1,0.003 -0.1,-0.003 -0.101,-0.009 -0.099,-0.0157 -0.098,-0.022 -0.096,-0.028 -0.095,-0.034 -0.092,-0.04 -0.09,-0.0456 -0.086,-0.0512 -0.083,-0.0565 -0.08,-0.0616 -0.075,-0.0664 -0.071,-0.0711 -0.067,-0.0754 -0.061,-0.0794 -0.057,-0.0832 -0.051,-0.0865 -0.046,-0.0895 -0.04,-0.0923 -0.034,-0.0946 -0.028,-0.0965 -0.022,-0.0981 -0.015,-0.0993 -0.01,-0.1 -0.003,-0.1005 z"
     id="path900" />
  <path
     style="fill:none;stroke:#000000;stroke-width:0.0254;stroke-miterlimit:4;stroke-dasharray:none"
     d="m 102.25,-249.75 h 10 v 25 h -10 z"
     id="path898" />
  <path
     style="fill:none;stroke:#000000;stroke-width:0.0254;stroke-miterlimit:4;stroke-dasharray:none"
     d="m 87,-253.75 h 12.5 v 23 H 87 Z"
     id="path896" />
  <path
     style="fill:none;stroke:#000000;stroke-width:0.0254;stroke-miterlimit:4;stroke-dasharray:none"
     d="m 51.25,-196.75 h 11 v 35 h -11 z"
     id="path894" />
  <path
     style="fill:none;stroke:#000000;stroke-width:0.0254;stroke-miterlimit:4;stroke-dasharray:none"
     d="m 35.875,-197.48 h 12.75 v 23.46 h -12.75 z"
     id="path892" />
  <path
     style="fill:none;stroke:#000000;stroke-width:0.0254;stroke-miterlimit:4;stroke-dasharray:none"
     d="m 34.6532,-123.85 0.0094,-0.101 0.0157,-0.099 0.022,-0.098 0.028,-0.096 0.034,-0.095 0.04,-0.092 0.0456,-0.09 0.0512,-0.086 0.0565,-0.083 0.0616,-0.08 0.0664,-0.075 0.0711,-0.071 0.0754,-0.067 0.0794,-0.061 0.0832,-0.057 0.0865,-0.051 0.0895,-0.046 0.0923,-0.04 0.0946,-0.034 0.0965,-0.028 0.0981,-0.022 0.0993,-0.015 0.1,-0.01 0.1005,-0.003 0.1005,0.003 0.1,0.01 0.0993,0.015 0.0981,0.022 0.0965,0.028 0.0946,0.034 0.0922,0.04 0.0896,0.046 0.0865,0.051 0.0831,0.057 0.0795,0.061 0.0754,0.067 0.0711,0.071 0.0664,0.075 0.0616,0.08 0.0565,0.083 0.0512,0.086 0.0456,0.09 0.0399,0.092 0.0341,0.095 0.028,0.096 0.022,0.098 0.0157,0.099 0.0094,0.101 0.0032,0.1 -0.0032,0.1 -0.0094,0.101 -0.0157,0.099 -0.022,0.098 -0.028,0.096 -0.0341,0.095 -0.0399,0.092 -0.0456,0.09 -0.0512,0.086 -0.0565,0.083 -0.0616,0.08 -0.0664,0.075 -0.0711,0.071 -0.0754,0.067 -0.0795,0.061 -0.0831,0.057 -0.0865,0.051 -0.0896,0.046 -0.0922,0.04 -0.0946,0.034 -0.0965,0.028 -0.0981,0.022 -0.0993,0.015 -0.1,0.01 -0.1005,0.003 -0.1005,-0.003 -0.1,-0.01 -0.0993,-0.015 -0.0981,-0.022 -0.0965,-0.028 -0.0946,-0.034 -0.0923,-0.04 -0.0895,-0.046 -0.0865,-0.051 -0.0832,-0.057 -0.0794,-0.061 -0.0754,-0.067 -0.0711,-0.071 -0.0664,-0.075 -0.0616,-0.08 -0.0565,-0.083 -0.0512,-0.086 -0.0456,-0.09 -0.04,-0.092 -0.034,-0.095 -0.028,-0.096 -0.022,-0.098 -0.0157,-0.099 -0.0094,-0.101 -0.0032,-0.1 z"
     id="path890" />
  <path
     style="fill:none;stroke:#000000;stroke-width:0.0254;stroke-miterlimit:4;stroke-dasharray:none"
     d="m 34.6532,-208.8505 0.0094,-0.1 0.0157,-0.0993 0.022,-0.0981 0.028,-0.0965 0.034,-0.0946 0.04,-0.0923 0.0456,-0.0895 0.0512,-0.0865 0.0565,-0.0832 0.0616,-0.0794 0.0664,-0.0754 0.0711,-0.0711 0.0754,-0.0664 0.0794,-0.0616 0.0832,-0.0565 0.0865,-0.0512 0.0895,-0.0456 0.0923,-0.04 0.0946,-0.034 0.0965,-0.028 0.0981,-0.022 0.0993,-0.0157 0.1,-0.009 0.1005,-0.003 0.1005,0.003 0.1,0.009 0.0993,0.0157 0.0981,0.022 0.0965,0.028 0.0946,0.034 0.0922,0.04 0.0896,0.0456 0.0865,0.0512 0.0831,0.0565 0.0795,0.0616 0.0754,0.0664 0.0711,0.0711 0.0664,0.0754 0.0616,0.0794 0.0565,0.0832 0.0512,0.0865 0.0456,0.0895 0.0399,0.0923 0.0341,0.0946 0.028,0.0965 0.022,0.0981 0.0157,0.0993 0.0094,0.1 0.0032,0.1005 -0.0032,0.1005 -0.0094,0.1 -0.0157,0.0993 -0.022,0.0981 -0.028,0.0965 -0.0341,0.0946 -0.0399,0.0922 -0.0456,0.0896 -0.0512,0.0865 -0.0565,0.0831 -0.0616,0.0795 -0.0664,0.0754 -0.0711,0.071 -0.0754,0.0665 -0.0795,0.0616 -0.0831,0.0565 -0.0865,0.0512 -0.0896,0.0456 -0.0922,0.0399 -0.0946,0.0341 -0.0965,0.028 -0.0981,0.022 -0.0993,0.0157 -0.1,0.009 -0.1005,0.003 -0.1005,-0.003 -0.1,-0.009 -0.0993,-0.0157 -0.0981,-0.022 -0.0965,-0.028 -0.0946,-0.0341 -0.0923,-0.0399 -0.0895,-0.0456 -0.0865,-0.0512 -0.0832,-0.0565 -0.0794,-0.0616 -0.0754,-0.0665 -0.0711,-0.071 -0.0664,-0.0754 -0.0616,-0.0795 -0.0565,-0.0831 -0.0512,-0.0865 -0.0456,-0.0896 -0.04,-0.0922 -0.034,-0.0946 -0.028,-0.0965 -0.022,-0.0981 -0.0157,-0.0993 -0.0094,-0.1 -0.0032,-0.1005 z"
     id="path888" />
  <path
     style="fill:none;stroke:#000000;stroke-width:0.0254;stroke-miterlimit:4;stroke-dasharray:none"
     d="m 34.6532,-158.8505 0.0094,-0.1 0.0157,-0.0993 0.022,-0.0981 0.028,-0.0965 0.034,-0.0946 0.04,-0.0922 0.0456,-0.0896 0.0512,-0.0865 0.0565,-0.0832 0.0616,-0.0794 0.0664,-0.0754 0.0711,-0.0711 0.0754,-0.0664 0.0794,-0.0616 0.0832,-0.0565 0.0865,-0.0512 0.0895,-0.0456 0.0923,-0.0399 0.0946,-0.0341 0.0965,-0.028 0.0981,-0.022 0.0993,-0.0157 0.1,-0.009 0.1005,-0.003 0.1005,0.003 0.1,0.009 0.0993,0.0157 0.0981,0.022 0.0965,0.028 0.0946,0.0341 0.0922,0.0399 0.0896,0.0456 0.0865,0.0512 0.0831,0.0565 0.0795,0.0616 0.0754,0.0664 0.0711,0.0711 0.0664,0.0754 0.0616,0.0794 0.0565,0.0832 0.0512,0.0865 0.0456,0.0896 0.0399,0.0922 0.0341,0.0946 0.028,0.0965 0.022,0.0981 0.0157,0.0993 0.0094,0.1 0.0032,0.1005 -0.0032,0.1005 -0.0094,0.1 -0.0157,0.0993 -0.022,0.0981 -0.028,0.0965 -0.0341,0.0946 -0.0399,0.0922 -0.0456,0.0896 -0.0512,0.0865 -0.0565,0.0832 -0.0616,0.0794 -0.0664,0.0754 -0.0711,0.0711 -0.0754,0.0664 -0.0795,0.0616 -0.0831,0.0565 -0.0865,0.0512 -0.0896,0.0456 -0.0922,0.0399 -0.0946,0.0341 -0.0965,0.028 -0.0981,0.022 -0.0993,0.0157 -0.1,0.009 -0.1005,0.003 -0.1005,-0.003 -0.1,-0.009 -0.0993,-0.0157 -0.0981,-0.022 -0.0965,-0.028 -0.0946,-0.0341 -0.0923,-0.0399 -0.0895,-0.0456 -0.0865,-0.0512 -0.0832,-0.0565 -0.0794,-0.0616 -0.0754,-0.0664 -0.0711,-0.0711 -0.0664,-0.0754 -0.0616,-0.0794 -0.0565,-0.0832 -0.0512,-0.0865 -0.0456,-0.0896 -0.04,-0.0922 -0.034,-0.0946 -0.028,-0.0965 -0.022,-0.0981 -0.0157,-0.0993 -0.0094,-0.1 -0.0032,-0.1005 z"
     id="path886" />
  <path
     style="fill:none;stroke:#000000;stroke-width:0.0254;stroke-miterlimit:4;stroke-dasharray:none"
     d="m 34.6532,-260.8505 0.0094,-0.1 0.0157,-0.0993 0.022,-0.0981 0.028,-0.0965 0.034,-0.0946 0.04,-0.0922 0.0456,-0.0896 0.0512,-0.0865 0.0565,-0.0831 0.0616,-0.0795 0.0664,-0.0754 0.0711,-0.071 0.0754,-0.0665 0.0794,-0.0616 0.0832,-0.0565 0.0865,-0.0512 0.0895,-0.0456 0.0923,-0.0399 0.0946,-0.0341 0.0965,-0.028 0.0981,-0.022 0.0993,-0.0157 0.1,-0.009 0.1005,-0.003 0.1005,0.003 0.1,0.009 0.0993,0.0157 0.0981,0.022 0.0965,0.028 0.0946,0.0341 0.0922,0.0399 0.0896,0.0456 0.0865,0.0512 0.0831,0.0565 0.0795,0.0616 0.0754,0.0665 0.0711,0.071 0.0664,0.0754 0.0616,0.0795 0.0565,0.0831 0.0512,0.0865 0.0456,0.0896 0.0399,0.0922 0.0341,0.0946 0.028,0.0965 0.022,0.0981 0.0157,0.0993 0.0094,0.1 0.0032,0.1005 -0.0032,0.1005 -0.0094,0.1 -0.0157,0.0993 -0.022,0.0981 -0.028,0.0965 -0.0341,0.0946 -0.0399,0.0923 -0.0456,0.0895 -0.0512,0.0865 -0.0565,0.0832 -0.0616,0.0794 -0.0664,0.0754 -0.0711,0.0711 -0.0754,0.0664 -0.0795,0.0616 -0.0831,0.0565 -0.0865,0.0512 -0.0896,0.0456 -0.0922,0.04 -0.0946,0.034 -0.0965,0.028 -0.0981,0.022 -0.0993,0.0157 -0.1,0.009 -0.1005,0.003 -0.1005,-0.003 -0.1,-0.009 -0.0993,-0.0157 -0.0981,-0.022 -0.0965,-0.028 -0.0946,-0.034 -0.0923,-0.04 -0.0895,-0.0456 -0.0865,-0.0512 -0.0832,-0.0565 -0.0794,-0.0616 -0.0754,-0.0664 -0.0711,-0.0711 -0.0664,-0.0754 -0.0616,-0.0794 -0.0565,-0.0832 -0.0512,-0.0865 -0.0456,-0.0895 -0.04,-0.0923 -0.034,-0.0946 -0.028,-0.0965 -0.022,-0.0981 -0.0157,-0.0993 -0.0094,-0.1 -0.0032,-0.1005 z"
     id="path884" />
  <path
     style="fill:none;stroke:#000000;stroke-width:0.0254;stroke-miterlimit:4;stroke-dasharray:none"
     d="m 19.5821,-221.336 0.1529,-0.369 0.2431,-0.3169 0.3169,-0.2431 0.369,-0.1529 0.396,-0.0521 0.396,0.0521 0.369,0.1529 0.3169,0.2431 0.2431,0.3169 0.1529,0.369 0.0521,0.396 -0.0521,0.396 -0.1529,0.369 -0.2431,0.3169 -0.3169,0.2431 -0.369,0.1529 -0.396,0.0521 -0.396,-0.0521 -0.369,-0.1529 -0.3169,-0.2431 -0.2431,-0.3169 -0.1529,-0.369 -0.0521,-0.396 z"
     id="path882" />
  <path
     style="fill:none;stroke:#000000;stroke-width:0.0254;stroke-miterlimit:4;stroke-dasharray:none"
     d="m 19.5821,-252.956 0.1529,-0.369 0.2431,-0.3169 0.3169,-0.2431 0.369,-0.1529 0.396,-0.0521 0.396,0.0521 0.369,0.1529 0.3169,0.2431 0.2431,0.3169 0.1529,0.369 0.0521,0.396 -0.0521,0.396 -0.1529,0.369 -0.2431,0.3169 -0.3169,0.2431 -0.369,0.1529 -0.396,0.0521 -0.396,-0.0521 -0.369,-0.1529 -0.3169,-0.2431 -0.2431,-0.3169 -0.1529,-0.369 -0.0521,-0.396 z"
     id="path880" />
  <path
     style="fill:none;stroke:#000000;stroke-width:0.0254;stroke-miterlimit:4;stroke-dasharray:none"
     d="m -5.5877,-239.65395 1.1209,-2.70604 1.78307,-2.32374 2.32374,-1.78307 2.70604,-1.1209 2.90395,-0.3823 2.90395,0.3823 2.70604,1.1209 2.32374,1.78307 1.78307,2.32374 1.1209,2.70604 0.3823,2.90395 -0.3823,2.90395 -1.1209,2.70604 -1.78307,2.32374 -2.32374,1.78307 -2.70604,1.1209 -2.90395,0.3823 -2.90395,-0.3823 -2.70604,-1.1209 -2.32374,-1.78307 -1.78307,-2.32374 -1.1209,-2.70604 L -5.97,-236.75 Z"
     id="path878" />
  <path
     style="fill:none;stroke:#000000;stroke-width:0.0254;stroke-miterlimit:4;stroke-dasharray:none"
     d="m -12.0379,-221.336 0.1529,-0.369 0.2431,-0.3169 0.3169,-0.2431 0.369,-0.1529 0.396,-0.0521 0.396,0.0521 0.369,0.1529 0.3169,0.2431 0.2431,0.3169 0.1529,0.369 0.0521,0.396 -0.0521,0.396 -0.1529,0.369 -0.2431,0.3169 -0.3169,0.2431 -0.369,0.1529 -0.396,0.0521 -0.396,-0.0521 -0.369,-0.1529 -0.3169,-0.2431 -0.2431,-0.3169 -0.1529,-0.369 -0.0521,-0.396 z"
     id="path876" />
  <path
     style="fill:none;stroke:#000000;stroke-width:0.0254;stroke-miterlimit:4;stroke-dasharray:none"
     d="m -12.0379,-252.956 0.1529,-0.369 0.2431,-0.3169 0.3169,-0.2431 0.369,-0.1529 0.396,-0.0521 0.396,0.0521 0.369,0.1529 0.3169,0.2431 0.2431,0.3169 0.1529,0.369 0.0521,0.396 -0.0521,0.396 -0.1529,0.369 -0.2431,0.3169 -0.3169,0.2431 -0.369,0.1529 -0.396,0.0521 -0.396,-0.0521 -0.369,-0.1529 -0.3169,-0.2431 -0.2431,-0.3169 -0.1529,-0.369 -0.0521,-0.396 z"
     id="path874" />
  <path
     style="fill:none;stroke:#000000;stroke-width:0.0254;stroke-miterlimit:4;stroke-dasharray:none"
     d="m -26.3468,-208.8505 0.0094,-0.1 0.0157,-0.0993 0.022,-0.0981 0.028,-0.0965 0.0341,-0.0946 0.0399,-0.0923 0.0456,-0.0895 0.0512,-0.0865 0.0565,-0.0832 0.0616,-0.0794 0.0665,-0.0754 0.071,-0.0711 0.0754,-0.0664 0.0795,-0.0616 0.0831,-0.0565 0.0865,-0.0512 0.0896,-0.0456 0.0922,-0.04 0.0946,-0.034 0.0965,-0.028 0.0981,-0.022 0.0993,-0.0157 0.1,-0.009 0.1005,-0.003 0.1005,0.003 0.1,0.009 0.0993,0.0157 0.0981,0.022 0.0965,0.028 0.0946,0.034 0.0923,0.04 0.0895,0.0456 0.0865,0.0512 0.0832,0.0565 0.0794,0.0616 0.0754,0.0664 0.0711,0.0711 0.0664,0.0754 0.0616,0.0794 0.0565,0.0832 0.0512,0.0865 0.0456,0.0895 0.04,0.0923 0.034,0.0946 0.028,0.0965 0.022,0.0981 0.0157,0.0993 0.0094,0.1 0.0032,0.1005 -0.0032,0.1005 -0.0094,0.1 -0.0157,0.0993 -0.022,0.0981 -0.028,0.0965 -0.034,0.0946 -0.04,0.0922 -0.0456,0.0896 -0.0512,0.0865 -0.0565,0.0831 -0.0616,0.0795 -0.0664,0.0754 -0.0711,0.071 -0.0754,0.0665 -0.0794,0.0616 -0.0832,0.0565 -0.0865,0.0512 -0.0895,0.0456 -0.0923,0.0399 -0.0946,0.0341 -0.0965,0.028 -0.0981,0.022 -0.0993,0.0157 -0.1,0.009 -0.1005,0.003 -0.1005,-0.003 -0.1,-0.009 -0.0993,-0.0157 -0.0981,-0.022 -0.0965,-0.028 -0.0946,-0.0341 -0.0922,-0.0399 -0.0896,-0.0456 -0.0865,-0.0512 -0.0831,-0.0565 -0.0795,-0.0616 -0.0754,-0.0665 -0.071,-0.071 -0.0665,-0.0754 -0.0616,-0.0795 -0.0565,-0.0831 -0.0512,-0.0865 -0.0456,-0.0896 -0.0399,-0.0922 -0.0341,-0.0946 -0.028,-0.0965 -0.022,-0.0981 -0.0157,-0.0993 -0.0094,-0.1 -0.0032,-0.1005 z"
     id="path872" />
  <path
     style="fill:none;stroke:#000000;stroke-width:0.0254;stroke-miterlimit:4;stroke-dasharray:none"
     d="m -26.3468,-260.8505 0.0094,-0.1 0.0157,-0.0993 0.022,-0.0981 0.028,-0.0965 0.0341,-0.0946 0.0399,-0.0922 0.0456,-0.0896 0.0512,-0.0865 0.0565,-0.0831 0.0616,-0.0795 0.0665,-0.0754 0.071,-0.071 0.0754,-0.0665 0.0795,-0.0616 0.0831,-0.0565 0.0865,-0.0512 0.0896,-0.0456 0.0922,-0.0399 0.0946,-0.0341 0.0965,-0.028 0.0981,-0.022 0.0993,-0.0157 0.1,-0.009 0.1005,-0.003 0.1005,0.003 0.1,0.009 0.0993,0.0157 0.0981,0.022 0.0965,0.028 0.0946,0.0341 0.0923,0.0399 0.0895,0.0456 0.0865,0.0512 0.0832,0.0565 0.0794,0.0616 0.0754,0.0665 0.0711,0.071 0.0664,0.0754 0.0616,0.0795 0.0565,0.0831 0.0512,0.0865 0.0456,0.0896 0.04,0.0922 0.034,0.0946 0.028,0.0965 0.022,0.0981 0.0157,0.0993 0.0094,0.1 0.0032,0.1005 -0.0032,0.1005 -0.0094,0.1 -0.0157,0.0993 -0.022,0.0981 -0.028,0.0965 -0.034,0.0946 -0.04,0.0923 -0.0456,0.0895 -0.0512,0.0865 -0.0565,0.0832 -0.0616,0.0794 -0.0664,0.0754 -0.0711,0.0711 -0.0754,0.0664 -0.0794,0.0616 -0.0832,0.0565 -0.0865,0.0512 -0.0895,0.0456 -0.0923,0.04 -0.0946,0.034 -0.0965,0.028 -0.0981,0.022 -0.0993,0.0157 -0.1,0.009 -0.1005,0.003 -0.1005,-0.003 -0.1,-0.009 -0.0993,-0.0157 -0.0981,-0.022 -0.0965,-0.028 -0.0946,-0.034 -0.0922,-0.04 -0.0896,-0.0456 -0.0865,-0.0512 -0.0831,-0.0565 -0.0795,-0.0616 -0.0754,-0.0664 -0.071,-0.0711 -0.0665,-0.0754 -0.0616,-0.0794 -0.0565,-0.0832 -0.0512,-0.0865 -0.0456,-0.0895 -0.0399,-0.0923 -0.0341,-0.0946 -0.028,-0.0965 -0.022,-0.0981 -0.0157,-0.0993 -0.0094,-0.1 -0.0032,-0.1005 z"
     id="path870" />
  <path
     style="fill:none;stroke:#000000;stroke-width:0.0254;stroke-miterlimit:4;stroke-dasharray:none"
     d="m -26.3468,-158.8505 0.0094,-0.1 0.0157,-0.0993 0.022,-0.0981 0.028,-0.0965 0.0341,-0.0946 0.0399,-0.0922 0.0456,-0.0896 0.0512,-0.0865 0.0565,-0.0832 0.0616,-0.0794 0.0665,-0.0754 0.071,-0.0711 0.0754,-0.0664 0.0795,-0.0616 0.0831,-0.0565 0.0865,-0.0512 0.0896,-0.0456 0.0922,-0.0399 0.0946,-0.0341 0.0965,-0.028 0.0981,-0.022 0.0993,-0.0157 0.1,-0.009 0.1005,-0.003 0.1005,0.003 0.1,0.009 0.0993,0.0157 0.0981,0.022 0.0965,0.028 0.0946,0.0341 0.0923,0.0399 0.0895,0.0456 0.0865,0.0512 0.0832,0.0565 0.0794,0.0616 0.0754,0.0664 0.0711,0.0711 0.0664,0.0754 0.0616,0.0794 0.0565,0.0832 0.0512,0.0865 0.0456,0.0896 0.04,0.0922 0.034,0.0946 0.028,0.0965 0.022,0.0981 0.0157,0.0993 0.0094,0.1 0.0032,0.1005 -0.0032,0.1005 -0.0094,0.1 -0.0157,0.0993 -0.022,0.0981 -0.028,0.0965 -0.034,0.0946 -0.04,0.0922 -0.0456,0.0896 -0.0512,0.0865 -0.0565,0.0832 -0.0616,0.0794 -0.0664,0.0754 -0.0711,0.0711 -0.0754,0.0664 -0.0794,0.0616 -0.0832,0.0565 -0.0865,0.0512 -0.0895,0.0456 -0.0923,0.0399 -0.0946,0.0341 -0.0965,0.028 -0.0981,0.022 -0.0993,0.0157 -0.1,0.009 -0.1005,0.003 -0.1005,-0.003 -0.1,-0.009 -0.0993,-0.0157 -0.0981,-0.022 -0.0965,-0.028 -0.0946,-0.0341 -0.0922,-0.0399 -0.0896,-0.0456 -0.0865,-0.0512 -0.0831,-0.0565 -0.0795,-0.0616 -0.0754,-0.0664 -0.071,-0.0711 -0.0665,-0.0754 -0.0616,-0.0794 -0.0565,-0.0832 -0.0512,-0.0865 -0.0456,-0.0896 -0.0399,-0.0922 -0.0341,-0.0946 -0.028,-0.0965 -0.022,-0.0981 -0.0157,-0.0993 -0.0094,-0.1 -0.0032,-0.1005 z"
     id="path868" />
  <path
     style="fill:none;stroke:#000000;stroke-width:0.0254;stroke-miterlimit:4;stroke-dasharray:none"
     d="m -26.3468,-123.85 0.0094,-0.101 0.0157,-0.099 0.022,-0.098 0.028,-0.096 0.0341,-0.095 0.0399,-0.092 0.0456,-0.09 0.0512,-0.086 0.0565,-0.083 0.0616,-0.08 0.0665,-0.075 0.071,-0.071 0.0754,-0.067 0.0795,-0.061 0.0831,-0.057 0.0865,-0.051 0.0896,-0.046 0.0922,-0.04 0.0946,-0.034 0.0965,-0.028 0.0981,-0.022 0.0993,-0.015 0.1,-0.01 0.1005,-0.003 0.1005,0.003 0.1,0.01 0.0993,0.015 0.0981,0.022 0.0965,0.028 0.0946,0.034 0.0923,0.04 0.0895,0.046 0.0865,0.051 0.0832,0.057 0.0794,0.061 0.0754,0.067 0.0711,0.071 0.0664,0.075 0.0616,0.08 0.0565,0.083 0.0512,0.086 0.0456,0.09 0.04,0.092 0.034,0.095 0.028,0.096 0.022,0.098 0.0157,0.099 0.0094,0.101 0.0032,0.1 -0.0032,0.1 -0.0094,0.101 -0.0157,0.099 -0.022,0.098 -0.028,0.096 -0.034,0.095 -0.04,0.092 -0.0456,0.09 -0.0512,0.086 -0.0565,0.083 -0.0616,0.08 -0.0664,0.075 -0.0711,0.071 -0.0754,0.067 -0.0794,0.061 -0.0832,0.057 -0.0865,0.051 -0.0895,0.046 -0.0923,0.04 -0.0946,0.034 -0.0965,0.028 -0.0981,0.022 -0.0993,0.015 -0.1,0.01 -0.1005,0.003 -0.1005,-0.003 -0.1,-0.01 -0.0993,-0.015 -0.0981,-0.022 -0.0965,-0.028 -0.0946,-0.034 -0.0922,-0.04 -0.0896,-0.046 -0.0865,-0.051 -0.0831,-0.057 -0.0795,-0.061 -0.0754,-0.067 -0.071,-0.071 -0.0665,-0.075 -0.0616,-0.08 -0.0565,-0.083 -0.0512,-0.086 -0.0456,-0.09 -0.0399,-0.092 -0.0341,-0.095 -0.028,-0.096 -0.022,-0.098 -0.0157,-0.099 -0.0094,-0.101 -0.0032,-0.1 z"
     id="path866" />
  <path
     style="fill:none;stroke:#000000;stroke-width:0.0254;stroke-miterlimit:4;stroke-dasharray:none"
     d="m 120.25,-1.25 v -115 h -150 v 115 z"
     id="path864" />
  <path
     style="fill:none;stroke:#000000;stroke-width:0.0254;stroke-miterlimit:4;stroke-dasharray:none"
     d="m 113.653,-110.35 0.01,-0.101 0.015,-0.099 0.022,-0.098 0.028,-0.096 0.034,-0.095 0.04,-0.092 0.046,-0.09 0.051,-0.086 0.057,-0.083 0.061,-0.08 0.067,-0.075 0.071,-0.071 0.075,-0.067 0.08,-0.061 0.083,-0.057 0.086,-0.051 0.09,-0.046 0.092,-0.04 0.095,-0.034 0.096,-0.028 0.098,-0.022 0.099,-0.015 0.101,-0.01 0.1,-0.003 0.1,0.003 0.101,0.01 0.099,0.015 0.098,0.022 0.096,0.028 0.095,0.034 0.092,0.04 0.09,0.046 0.086,0.051 0.083,0.057 0.08,0.061 0.075,0.067 0.071,0.071 0.067,0.075 0.061,0.08 0.057,0.083 0.051,0.086 0.046,0.09 0.04,0.092 0.034,0.095 0.028,0.096 0.022,0.098 0.015,0.099 0.01,0.101 0.003,0.1 -0.003,0.1 -0.01,0.101 -0.015,0.099 -0.022,0.098 -0.028,0.096 -0.034,0.095 -0.04,0.092 -0.046,0.09 -0.051,0.086 -0.057,0.083 -0.061,0.08 -0.067,0.075 -0.071,0.071 -0.075,0.067 -0.08,0.061 -0.083,0.057 -0.086,0.051 -0.09,0.046 -0.092,0.04 -0.095,0.034 -0.096,0.028 -0.098,0.022 -0.099,0.015 -0.101,0.01 -0.1,0.003 -0.1,-0.003 -0.101,-0.01 -0.099,-0.015 -0.098,-0.022 -0.096,-0.028 -0.095,-0.034 -0.092,-0.04 -0.09,-0.046 -0.086,-0.051 -0.083,-0.057 -0.08,-0.061 -0.075,-0.067 -0.071,-0.071 -0.067,-0.075 -0.061,-0.08 -0.057,-0.083 -0.051,-0.086 -0.046,-0.09 -0.04,-0.092 -0.034,-0.095 -0.028,-0.096 -0.022,-0.098 -0.015,-0.099 -0.01,-0.101 -0.003,-0.1 z"
     id="path862" />
  <path
     style="fill:none;stroke:#000000;stroke-width:0.0254;stroke-miterlimit:4;stroke-dasharray:none"
     d="m 113.653,-8.35 0.01,-0.101 0.015,-0.099 0.022,-0.098 0.028,-0.096 0.034,-0.095 0.04,-0.092 0.046,-0.09 0.051,-0.086 0.057,-0.083 0.061,-0.08 0.067,-0.075 0.071,-0.071 0.075,-0.067 0.08,-0.061 0.083,-0.057 0.086,-0.051 0.09,-0.046 0.092,-0.04 0.095,-0.034 0.096,-0.028 0.098,-0.022 0.099,-0.015 0.101,-0.01 0.1,-0.003 0.1,0.003 0.101,0.01 0.099,0.015 0.098,0.022 0.096,0.028 0.095,0.034 0.092,0.04 0.09,0.046 0.086,0.051 0.083,0.057 0.08,0.061 0.075,0.067 0.071,0.071 0.067,0.075 0.061,0.08 0.057,0.083 0.051,0.086 0.046,0.09 0.04,0.092 0.034,0.095 0.028,0.096 0.022,0.098 0.015,0.099 0.01,0.101 0.003,0.1 -0.003,0.1 -0.01,0.101 -0.015,0.099 -0.022,0.098 -0.028,0.096 -0.034,0.095 -0.04,0.092 -0.046,0.09 -0.051,0.086 -0.057,0.083 -0.061,0.08 -0.067,0.075 -0.071,0.071 -0.075,0.067 -0.08,0.061 -0.083,0.057 -0.086,0.051 -0.09,0.046 -0.092,0.04 -0.095,0.034 -0.096,0.028 -0.098,0.022 -0.099,0.015 -0.101,0.01 -0.1,0.003 -0.1,-0.003 -0.101,-0.01 -0.099,-0.015 -0.098,-0.022 -0.096,-0.028 -0.095,-0.034 -0.092,-0.04 -0.09,-0.046 -0.086,-0.051 -0.083,-0.057 -0.08,-0.061 -0.075,-0.067 -0.071,-0.071 -0.067,-0.075 -0.061,-0.08 -0.057,-0.083 -0.051,-0.086 -0.046,-0.09 -0.04,-0.092 -0.034,-0.095 -0.028,-0.096 -0.022,-0.098 -0.015,-0.099 -0.01,-0.101 -0.003,-0.1 z"
     id="path860" />
  <path
     style="fill:none;stroke:#000000;stroke-width:0.0254;stroke-miterlimit:4;stroke-dasharray:none"
     d="m 113.653,-58.35 0.01,-0.101 0.015,-0.099 0.022,-0.098 0.028,-0.096 0.034,-0.095 0.04,-0.092 0.046,-0.09 0.051,-0.086 0.057,-0.083 0.061,-0.08 0.067,-0.075 0.071,-0.071 0.075,-0.067 0.08,-0.061 0.083,-0.057 0.086,-0.051 0.09,-0.046 0.092,-0.04 0.095,-0.034 0.096,-0.028 0.098,-0.022 0.099,-0.015 0.101,-0.01 0.1,-0.003 0.1,0.003 0.101,0.01 0.099,0.015 0.098,0.022 0.096,0.028 0.095,0.034 0.092,0.04 0.09,0.046 0.086,0.051 0.083,0.057 0.08,0.061 0.075,0.067 0.071,0.071 0.067,0.075 0.061,0.08 0.057,0.083 0.051,0.086 0.046,0.09 0.04,0.092 0.034,0.095 0.028,0.096 0.022,0.098 0.015,0.099 0.01,0.101 0.003,0.1 -0.003,0.1 -0.01,0.101 -0.015,0.099 -0.022,0.098 -0.028,0.096 -0.034,0.095 -0.04,0.092 -0.046,0.09 -0.051,0.086 -0.057,0.083 -0.061,0.08 -0.067,0.075 -0.071,0.071 -0.075,0.067 -0.08,0.061 -0.083,0.057 -0.086,0.051 -0.09,0.046 -0.092,0.04 -0.095,0.034 -0.096,0.028 -0.098,0.022 -0.099,0.015 -0.101,0.01 -0.1,0.003 -0.1,-0.003 -0.101,-0.01 -0.099,-0.015 -0.098,-0.022 -0.096,-0.028 -0.095,-0.034 -0.092,-0.04 -0.09,-0.046 -0.086,-0.051 -0.083,-0.057 -0.08,-0.061 -0.075,-0.067 -0.071,-0.071 -0.067,-0.075 -0.061,-0.08 -0.057,-0.083 -0.051,-0.086 -0.046,-0.09 -0.04,-0.092 -0.034,-0.095 -0.028,-0.096 -0.022,-0.098 -0.015,-0.099 -0.01,-0.101 -0.003,-0.1 z"
     id="path858" />
  <path
     style="fill:none;stroke:#000000;stroke-width:0.0254;stroke-miterlimit:4;stroke-dasharray:none"
     d="m 102.25,-99.25 h 10 v 25 h -10 z"
     id="path856" />
  <path
     style="fill:none;stroke:#000000;stroke-width:0.0254;stroke-miterlimit:4;stroke-dasharray:none"
     d="m 87.5437,-88.104 0.8522,-1.673 1.3274,-1.327 0.7267,-0.37 v -3.776 h 5.6 v 3.776 l 0.7267,0.37 1.3274,1.327 0.8522,1.673 0.2937,1.854 -0.2937,1.854 -0.8522,1.673 -1.3274,1.327 -1.6726,0.852 -1.8541,0.294 -1.8541,-0.294 -1.6726,-0.852 -1.3274,-1.327 -0.8522,-1.673 -0.2937,-1.854 z"
     id="path854" />
  <path
     style="fill:none;stroke:#000000;stroke-width:0.0254;stroke-miterlimit:4;stroke-dasharray:none"
     d="m 92.252,-78.313 0.0059,-0.062 0.0098,-0.062 0.0137,-0.062 0.0175,-0.06 0.0213,-0.059 0.025,-0.058 0.0285,-0.056 0.032,-0.054 0.0353,-0.052 0.0385,-0.049 0.0415,-0.048 0.0444,-0.044 0.0472,-0.042 0.0496,-0.038 0.052,-0.035 0.054,-0.032 0.056,-0.029 0.0577,-0.025 0.0591,-0.021 0.0603,-0.018 0.0613,-0.013 0.0621,-0.01 0.0625,-0.006 0.0628,-0.002 0.0628,0.002 0.0625,0.006 0.0621,0.01 0.0613,0.013 0.0603,0.018 0.0591,0.021 0.0577,0.025 0.056,0.029 0.054,0.032 0.052,0.035 0.0496,0.038 0.0471,0.042 0.0445,0.044 0.0415,0.048 0.0385,0.049 0.0353,0.052 0.032,0.054 0.0285,0.056 0.025,0.058 0.0212,0.059 0.0176,0.06 0.0137,0.062 0.0098,0.062 0.0059,0.062 0.002,0.063 -0.002,0.063 -0.0059,0.062 -0.0098,0.062 -0.0137,0.062 -0.0176,0.06 -0.0212,0.059 -0.025,0.058 -0.0285,0.056 -0.032,0.054 -0.0353,0.052 -0.0385,0.049 -0.0415,0.048 -0.0445,0.044 -0.0471,0.042 -0.0496,0.038 -0.052,0.035 -0.054,0.032 -0.056,0.029 -0.0577,0.025 -0.0591,0.021 -0.0603,0.018 -0.0613,0.013 -0.0621,0.01 -0.0625,0.006 -0.0628,0.002 -0.0628,-0.002 -0.0625,-0.006 -0.0621,-0.01 -0.0613,-0.013 -0.0603,-0.018 -0.0591,-0.021 -0.0577,-0.025 -0.056,-0.029 -0.054,-0.032 -0.052,-0.035 -0.0496,-0.038 -0.0472,-0.042 -0.0444,-0.044 -0.0415,-0.048 -0.0385,-0.049 -0.0353,-0.052 -0.032,-0.054 -0.0285,-0.056 -0.025,-0.058 -0.0213,-0.059 -0.0175,-0.06 -0.0137,-0.062 -0.0098,-0.062 -0.0059,-0.062 -0.002,-0.063 z"
     id="path852" />
  <path
     style="fill:none;stroke:#000000;stroke-width:0.0254;stroke-miterlimit:4;stroke-dasharray:none"
     d="m 92.252,-106.313 0.0059,-0.062 0.0098,-0.062 0.0137,-0.062 0.0175,-0.06 0.0213,-0.059 0.025,-0.058 0.0285,-0.056 0.032,-0.054 0.0353,-0.052 0.0385,-0.049 0.0415,-0.048 0.0444,-0.044 0.0472,-0.042 0.0496,-0.038 0.052,-0.035 0.054,-0.032 0.056,-0.029 0.0577,-0.025 0.0591,-0.021 0.0603,-0.018 0.0613,-0.013 0.0621,-0.01 0.0625,-0.006 0.0628,-0.002 0.0628,0.002 0.0625,0.006 0.0621,0.01 0.0613,0.013 0.0603,0.018 0.0591,0.021 0.0577,0.025 0.056,0.029 0.054,0.032 0.052,0.035 0.0496,0.038 0.0471,0.042 0.0445,0.044 0.0415,0.048 0.0385,0.049 0.0353,0.052 0.032,0.054 0.0285,0.056 0.025,0.058 0.0212,0.059 0.0176,0.06 0.0137,0.062 0.0098,0.062 0.0059,0.062 0.002,0.063 -0.002,0.063 -0.0059,0.062 -0.0098,0.062 -0.0137,0.062 -0.0176,0.06 -0.0212,0.059 -0.025,0.058 -0.0285,0.056 -0.032,0.054 -0.0353,0.052 -0.0385,0.049 -0.0415,0.048 -0.0445,0.044 -0.0471,0.042 -0.0496,0.038 -0.052,0.035 -0.054,0.032 -0.056,0.029 -0.0577,0.025 -0.0591,0.021 -0.0603,0.018 -0.0613,0.013 -0.0621,0.01 -0.0625,0.006 -0.0628,0.002 -0.0628,-0.002 -0.0625,-0.006 -0.0621,-0.01 -0.0613,-0.013 -0.0603,-0.018 -0.0591,-0.021 -0.0577,-0.025 -0.056,-0.029 -0.054,-0.032 -0.052,-0.035 -0.0496,-0.038 -0.0472,-0.042 -0.0444,-0.044 -0.0415,-0.048 -0.0385,-0.049 -0.0353,-0.052 -0.032,-0.054 -0.0285,-0.056 -0.025,-0.058 -0.0213,-0.059 -0.0175,-0.06 -0.0137,-0.062 -0.0098,-0.062 -0.0059,-0.062 -0.002,-0.063 z"
     id="path850" />
  <path
     style="fill:none;stroke:#000000;stroke-width:0.0254;stroke-miterlimit:4;stroke-dasharray:none"
     d="m 51.25,-46.25 h 11 v 35 h -11 z"
     id="path848" />
  <path
     style="fill:none;stroke:#000000;stroke-width:0.0254;stroke-miterlimit:4;stroke-dasharray:none"
     d="m 36.4295,-31.531 0.8693,-1.706 1.354,-1.354 0.7412,-0.378 v -3.851 h 5.712 v 3.851 l 0.7412,0.378 1.354,1.354 0.8693,1.706 0.2995,1.891 -0.2995,1.891 -0.8693,1.706 -1.354,1.354 -1.706,0.869 -1.8912,0.3 -1.8912,-0.3 -1.706,-0.869 -1.354,-1.354 -0.8693,-1.706 -0.2995,-1.891 z"
     id="path846" />
  <path
     style="fill:none;stroke:#000000;stroke-width:0.0254;stroke-miterlimit:4;stroke-dasharray:none"
     d="m 41.252,-21.313 0.0059,-0.062 0.0098,-0.062 0.0137,-0.062 0.0175,-0.06 0.0213,-0.059 0.025,-0.058 0.0285,-0.056 0.032,-0.054 0.0353,-0.052 0.0385,-0.049 0.0415,-0.048 0.0444,-0.044 0.0472,-0.042 0.0496,-0.038 0.052,-0.035 0.054,-0.032 0.056,-0.029 0.0577,-0.025 0.0591,-0.021 0.0603,-0.018 0.0613,-0.013 0.0621,-0.01 0.0625,-0.006 0.0628,-0.002 0.0628,0.002 0.0625,0.006 0.0621,0.01 0.0613,0.013 0.0603,0.018 0.0591,0.021 0.0577,0.025 0.056,0.029 0.054,0.032 0.052,0.035 0.0496,0.038 0.0471,0.042 0.0445,0.044 0.0415,0.048 0.0385,0.049 0.0353,0.052 0.032,0.054 0.0285,0.056 0.025,0.058 0.0212,0.059 0.0176,0.06 0.0137,0.062 0.0098,0.062 0.0059,0.062 0.002,0.063 -0.002,0.063 -0.0059,0.062 -0.0098,0.062 -0.0137,0.062 -0.0176,0.06 -0.0212,0.059 -0.025,0.058 -0.0285,0.056 -0.032,0.054 -0.0353,0.052 -0.0385,0.049 -0.0415,0.048 -0.0445,0.044 -0.0471,0.042 -0.0496,0.038 -0.052,0.035 -0.054,0.032 -0.056,0.029 -0.0577,0.025 -0.0591,0.021 -0.0603,0.018 -0.0613,0.013 -0.0621,0.01 -0.0625,0.006 -0.0628,0.002 -0.0628,-0.002 -0.0625,-0.006 -0.0621,-0.01 -0.0613,-0.013 -0.0603,-0.018 -0.0591,-0.021 -0.0577,-0.025 -0.056,-0.029 -0.054,-0.032 -0.052,-0.035 -0.0496,-0.038 -0.0472,-0.042 -0.0444,-0.044 -0.0415,-0.048 -0.0385,-0.049 -0.0353,-0.052 -0.032,-0.054 -0.0285,-0.056 -0.025,-0.058 -0.0213,-0.059 -0.0175,-0.06 -0.0137,-0.062 -0.0098,-0.062 -0.0059,-0.062 -0.002,-0.063 z"
     id="path844" />
  <path
     style="fill:none;stroke:#000000;stroke-width:0.0254;stroke-miterlimit:4;stroke-dasharray:none"
     d="m 41.252,-49.313 0.0059,-0.062 0.0098,-0.062 0.0137,-0.062 0.0175,-0.06 0.0213,-0.059 0.025,-0.058 0.0285,-0.056 0.032,-0.054 0.0353,-0.052 0.0385,-0.049 0.0415,-0.048 0.0444,-0.044 0.0472,-0.042 0.0496,-0.038 0.052,-0.035 0.054,-0.032 0.056,-0.029 0.0577,-0.025 0.0591,-0.021 0.0603,-0.018 0.0613,-0.013 0.0621,-0.01 0.0625,-0.006 0.0628,-0.002 0.0628,0.002 0.0625,0.006 0.0621,0.01 0.0613,0.013 0.0603,0.018 0.0591,0.021 0.0577,0.025 0.056,0.029 0.054,0.032 0.052,0.035 0.0496,0.038 0.0471,0.042 0.0445,0.044 0.0415,0.048 0.0385,0.049 0.0353,0.052 0.032,0.054 0.0285,0.056 0.025,0.058 0.0212,0.059 0.0176,0.06 0.0137,0.062 0.0098,0.062 0.0059,0.062 0.002,0.063 -0.002,0.063 -0.0059,0.062 -0.0098,0.062 -0.0137,0.062 -0.0176,0.06 -0.0212,0.059 -0.025,0.058 -0.0285,0.056 -0.032,0.054 -0.0353,0.052 -0.0385,0.049 -0.0415,0.048 -0.0445,0.044 -0.0471,0.042 -0.0496,0.038 -0.052,0.035 -0.054,0.032 -0.056,0.029 -0.0577,0.025 -0.0591,0.021 -0.0603,0.018 -0.0613,0.013 -0.0621,0.01 -0.0625,0.006 -0.0628,0.002 -0.0628,-0.002 -0.0625,-0.006 -0.0621,-0.01 -0.0613,-0.013 -0.0603,-0.018 -0.0591,-0.021 -0.0577,-0.025 -0.056,-0.029 -0.054,-0.032 -0.052,-0.035 -0.0496,-0.038 -0.0472,-0.042 -0.0444,-0.044 -0.0415,-0.048 -0.0385,-0.049 -0.0353,-0.052 -0.032,-0.054 -0.0285,-0.056 -0.025,-0.058 -0.0213,-0.059 -0.0175,-0.06 -0.0137,-0.062 -0.0098,-0.062 -0.0059,-0.062 -0.002,-0.063 z"
     id="path842" />
  <path
     style="fill:none;stroke:#000000;stroke-width:0.0254;stroke-miterlimit:4;stroke-dasharray:none"
     d="m 34.6532,-110.35 0.0094,-0.101 0.0157,-0.099 0.022,-0.098 0.028,-0.096 0.034,-0.095 0.04,-0.092 0.0456,-0.09 0.0512,-0.086 0.0565,-0.083 0.0616,-0.08 0.0664,-0.075 0.0711,-0.071 0.0754,-0.067 0.0794,-0.061 0.0832,-0.057 0.0865,-0.051 0.0895,-0.046 0.0923,-0.04 0.0946,-0.034 0.0965,-0.028 0.0981,-0.022 0.0993,-0.015 0.1,-0.01 0.1005,-0.003 0.1005,0.003 0.1,0.01 0.0993,0.015 0.0981,0.022 0.0965,0.028 0.0946,0.034 0.0922,0.04 0.0896,0.046 0.0865,0.051 0.0831,0.057 0.0795,0.061 0.0754,0.067 0.0711,0.071 0.0664,0.075 0.0616,0.08 0.0565,0.083 0.0512,0.086 0.0456,0.09 0.0399,0.092 0.0341,0.095 0.028,0.096 0.022,0.098 0.0157,0.099 0.0094,0.101 0.0032,0.1 -0.0032,0.1 -0.0094,0.101 -0.0157,0.099 -0.022,0.098 -0.028,0.096 -0.0341,0.095 -0.0399,0.092 -0.0456,0.09 -0.0512,0.086 -0.0565,0.083 -0.0616,0.08 -0.0664,0.075 -0.0711,0.071 -0.0754,0.067 -0.0795,0.061 -0.0831,0.057 -0.0865,0.051 -0.0896,0.046 -0.0922,0.04 -0.0946,0.034 -0.0965,0.028 -0.0981,0.022 -0.0993,0.015 -0.1,0.01 -0.1005,0.003 -0.1005,-0.003 -0.1,-0.01 -0.0993,-0.015 -0.0981,-0.022 -0.0965,-0.028 -0.0946,-0.034 -0.0923,-0.04 -0.0895,-0.046 -0.0865,-0.051 -0.0832,-0.057 -0.0794,-0.061 -0.0754,-0.067 -0.0711,-0.071 -0.0664,-0.075 -0.0616,-0.08 -0.0565,-0.083 -0.0512,-0.086 -0.0456,-0.09 -0.04,-0.092 -0.034,-0.095 -0.028,-0.096 -0.022,-0.098 -0.0157,-0.099 -0.0094,-0.101 -0.0032,-0.1 z"
     id="path840" />
  <path
     style="fill:none;stroke:#000000;stroke-width:0.0254;stroke-miterlimit:4;stroke-dasharray:none"
     d="m 34.6532,-8.35 0.0094,-0.101 0.0157,-0.099 0.022,-0.098 0.028,-0.096 0.034,-0.095 0.04,-0.092 0.0456,-0.09 0.0512,-0.086 0.0565,-0.083 0.0616,-0.08 0.0664,-0.075 0.0711,-0.071 0.0754,-0.067 0.0794,-0.061 0.0832,-0.057 0.0865,-0.051 0.0895,-0.046 0.0923,-0.04 0.0946,-0.034 0.0965,-0.028 0.0981,-0.022 0.0993,-0.015 0.1,-0.01 0.1005,-0.003 0.1005,0.003 0.1,0.01 0.0993,0.015 0.0981,0.022 0.0965,0.028 0.0946,0.034 0.0922,0.04 0.0896,0.046 0.0865,0.051 0.0831,0.057 0.0795,0.061 0.0754,0.067 0.0711,0.071 0.0664,0.075 0.0616,0.08 0.0565,0.083 0.0512,0.086 0.0456,0.09 0.0399,0.092 0.0341,0.095 0.028,0.096 0.022,0.098 0.0157,0.099 0.0094,0.101 0.0032,0.1 -0.0032,0.1 -0.0094,0.101 -0.0157,0.099 -0.022,0.098 -0.028,0.096 -0.0341,0.095 -0.0399,0.092 -0.0456,0.09 -0.0512,0.086 -0.0565,0.083 -0.0616,0.08 -0.0664,0.075 -0.0711,0.071 -0.0754,0.067 -0.0795,0.061 -0.0831,0.057 -0.0865,0.051 -0.0896,0.046 -0.0922,0.04 -0.0946,0.034 -0.0965,0.028 -0.0981,0.022 -0.0993,0.015 -0.1,0.01 -0.1005,0.003 -0.1005,-0.003 -0.1,-0.01 -0.0993,-0.015 -0.0981,-0.022 -0.0965,-0.028 -0.0946,-0.034 -0.0923,-0.04 -0.0895,-0.046 -0.0865,-0.051 -0.0832,-0.057 -0.0794,-0.061 -0.0754,-0.067 -0.0711,-0.071 -0.0664,-0.075 -0.0616,-0.08 -0.0565,-0.083 -0.0512,-0.086 -0.0456,-0.09 -0.04,-0.092 -0.034,-0.095 -0.028,-0.096 -0.022,-0.098 -0.0157,-0.099 -0.0094,-0.101 -0.0032,-0.1 z"
     id="path838" />
  <path
     style="fill:none;stroke:#000000;stroke-width:0.0254;stroke-miterlimit:4;stroke-dasharray:none"
     d="m 34.6532,-58.35 0.0094,-0.101 0.0157,-0.099 0.022,-0.098 0.028,-0.096 0.034,-0.095 0.04,-0.092 0.0456,-0.09 0.0512,-0.086 0.0565,-0.083 0.0616,-0.08 0.0664,-0.075 0.0711,-0.071 0.0754,-0.067 0.0794,-0.061 0.0832,-0.057 0.0865,-0.051 0.0895,-0.046 0.0923,-0.04 0.0946,-0.034 0.0965,-0.028 0.0981,-0.022 0.0993,-0.015 0.1,-0.01 0.1005,-0.003 0.1005,0.003 0.1,0.01 0.0993,0.015 0.0981,0.022 0.0965,0.028 0.0946,0.034 0.0922,0.04 0.0896,0.046 0.0865,0.051 0.0831,0.057 0.0795,0.061 0.0754,0.067 0.0711,0.071 0.0664,0.075 0.0616,0.08 0.0565,0.083 0.0512,0.086 0.0456,0.09 0.0399,0.092 0.0341,0.095 0.028,0.096 0.022,0.098 0.0157,0.099 0.0094,0.101 0.0032,0.1 -0.0032,0.1 -0.0094,0.101 -0.0157,0.099 -0.022,0.098 -0.028,0.096 -0.0341,0.095 -0.0399,0.092 -0.0456,0.09 -0.0512,0.086 -0.0565,0.083 -0.0616,0.08 -0.0664,0.075 -0.0711,0.071 -0.0754,0.067 -0.0795,0.061 -0.0831,0.057 -0.0865,0.051 -0.0896,0.046 -0.0922,0.04 -0.0946,0.034 -0.0965,0.028 -0.0981,0.022 -0.0993,0.015 -0.1,0.01 -0.1005,0.003 -0.1005,-0.003 -0.1,-0.01 -0.0993,-0.015 -0.0981,-0.022 -0.0965,-0.028 -0.0946,-0.034 -0.0923,-0.04 -0.0895,-0.046 -0.0865,-0.051 -0.0832,-0.057 -0.0794,-0.061 -0.0754,-0.067 -0.0711,-0.071 -0.0664,-0.075 -0.0616,-0.08 -0.0565,-0.083 -0.0512,-0.086 -0.0456,-0.09 -0.04,-0.092 -0.034,-0.095 -0.028,-0.096 -0.022,-0.098 -0.0157,-0.099 -0.0094,-0.101 -0.0032,-0.1 z"
     id="path836" />
  <path
     style="fill:none;stroke:#000000;stroke-width:0.0254;stroke-miterlimit:4;stroke-dasharray:none"
     d="m -6.7708,-87.513 0.5254,-2.472 1.0278,-2.308 1.48521,-2.045 1.87784,-1.691 2.18834,-1.263 2.40319,-0.781 2.51302,-0.264 2.51302,0.264 2.40319,0.781 2.18834,1.263 1.87784,1.691 1.48521,2.045 1.0278,2.308 0.5254,2.472 v 2.526 l -0.5254,2.472 -1.0278,2.308 -1.48521,2.045 -1.87784,1.691 -2.18834,1.263 -2.40319,0.781 -2.51302,0.264 -2.51302,-0.264 -2.40319,-0.781 -2.18834,-1.263 -1.87784,-1.691 -1.48521,-2.045 -1.0278,-2.308 -0.5254,-2.472 z"
     id="path834" />
  <path
     style="fill:none;stroke:#000000;stroke-width:0.0254;stroke-miterlimit:4;stroke-dasharray:none"
     d="M 3.47977,-84.14 5.25,-83.496 7.02023,-84.14 7.96216,-85.772 7.63503,-87.627 6.19191,-88.838 H 4.30809 l -1.44312,1.211 -0.32713,1.855 z"
     id="path832" />
  <path
     style="fill:none;stroke:#000000;stroke-width:0.0254;stroke-miterlimit:4;stroke-dasharray:none"
     d="m 2.7869,-86.91 0.25474,-0.615 0.40524,-0.528 0.52813,-0.405 0.615017,-0.255 L 5.25,-88.8 l 0.659973,0.087 0.615017,0.255 0.52813,0.405 0.40524,0.528 0.25474,0.615 0.04531,0.344 -2.824221,2.824 L 4.590027,-83.787 3.97501,-84.042 3.44688,-84.447 3.04164,-84.975 2.7869,-85.59 2.70001,-86.25 Z"
     id="path830" />
  <path
     style="fill:none;stroke:#000000;stroke-width:0.0254;stroke-miterlimit:4;stroke-dasharray:none"
     d="m 4.251984,-106.313 0.0059,-0.062 0.0098,-0.062 0.0137,-0.062 0.01753,-0.06 0.02129,-0.059 0.02495,-0.058 0.02852,-0.056 0.03198,-0.054 0.03531,-0.052 0.0385,-0.049 0.04155,-0.048 0.04442,-0.044 0.04712,-0.042 0.04964,-0.038 0.05197,-0.035 0.05406,-0.032 0.05598,-0.029 0.05765,-0.025 0.05911,-0.021 0.06032,-0.018 0.06131,-0.013 0.06206,-0.01 0.06253,-0.006 0.062816,-0.002 0.06279,0.002 0.06253,0.006 0.06206,0.01 0.06131,0.013 0.06032,0.018 0.05911,0.021 0.05765,0.025 0.05598,0.029 0.05406,0.032 0.05197,0.035 0.04964,0.038 0.04712,0.042 0.04442,0.044 0.04155,0.048 0.0385,0.049 0.03531,0.052 0.03198,0.054 0.02852,0.056 0.02495,0.058 0.02129,0.059 0.01753,0.06 0.0137,0.062 0.0098,0.062 0.0059,0.062 0.002,0.063 -0.002,0.063 -0.0059,0.062 -0.0098,0.062 -0.0137,0.062 -0.01753,0.06 -0.02129,0.059 -0.02495,0.058 -0.02852,0.056 -0.03198,0.054 -0.03531,0.052 -0.0385,0.049 -0.04155,0.048 -0.04442,0.044 -0.04712,0.042 -0.04964,0.038 -0.05197,0.035 -0.05406,0.032 -0.05598,0.029 -0.05765,0.025 -0.05911,0.021 -0.06032,0.018 -0.06131,0.013 -0.06206,0.01 -0.06253,0.006 -0.06279,0.002 -0.06279,-0.002 -0.06253,-0.006 -0.06206,-0.01 -0.06131,-0.013 -0.06032,-0.018 -0.05911,-0.021 -0.05765,-0.025 -0.05598,-0.029 -0.05406,-0.032 -0.05197,-0.035 -0.04964,-0.038 -0.04712,-0.042 -0.04442,-0.044 -0.04155,-0.048 -0.0385,-0.049 -0.03531,-0.052 -0.03198,-0.054 -0.02852,-0.056 -0.02495,-0.058 -0.02129,-0.059 -0.01753,-0.06 -0.0137,-0.062 -0.0098,-0.062 -0.0059,-0.062 L 4.25,-106.25 Z"
     id="path828" />
  <path
     style="fill:none;stroke:#000000;stroke-width:0.0254;stroke-miterlimit:4;stroke-dasharray:none"
     d="m -26.3468,-58.35 0.0094,-0.101 0.0157,-0.099 0.022,-0.098 0.028,-0.096 0.0341,-0.095 0.0399,-0.092 0.0456,-0.09 0.0512,-0.086 0.0565,-0.083 0.0616,-0.08 0.0665,-0.075 0.071,-0.071 0.0754,-0.067 0.0795,-0.061 0.0831,-0.057 0.0865,-0.051 0.0896,-0.046 0.0922,-0.04 0.0946,-0.034 0.0965,-0.028 0.0981,-0.022 0.0993,-0.015 0.1,-0.01 0.1005,-0.003 0.1005,0.003 0.1,0.01 0.0993,0.015 0.0981,0.022 0.0965,0.028 0.0946,0.034 0.0923,0.04 0.0895,0.046 0.0865,0.051 0.0832,0.057 0.0794,0.061 0.0754,0.067 0.0711,0.071 0.0664,0.075 0.0616,0.08 0.0565,0.083 0.0512,0.086 0.0456,0.09 0.04,0.092 0.034,0.095 0.028,0.096 0.022,0.098 0.0157,0.099 0.0094,0.101 0.0032,0.1 -0.0032,0.1 -0.0094,0.101 -0.0157,0.099 -0.022,0.098 -0.028,0.096 -0.034,0.095 -0.04,0.092 -0.0456,0.09 -0.0512,0.086 -0.0565,0.083 -0.0616,0.08 -0.0664,0.075 -0.0711,0.071 -0.0754,0.067 -0.0794,0.061 -0.0832,0.057 -0.0865,0.051 -0.0895,0.046 -0.0923,0.04 -0.0946,0.034 -0.0965,0.028 -0.0981,0.022 -0.0993,0.015 -0.1,0.01 -0.1005,0.003 -0.1005,-0.003 -0.1,-0.01 -0.0993,-0.015 -0.0981,-0.022 -0.0965,-0.028 -0.0946,-0.034 -0.0922,-0.04 -0.0896,-0.046 -0.0865,-0.051 -0.0831,-0.057 -0.0795,-0.061 -0.0754,-0.067 -0.071,-0.071 -0.0665,-0.075 -0.0616,-0.08 -0.0565,-0.083 -0.0512,-0.086 -0.0456,-0.09 -0.0399,-0.092 -0.0341,-0.095 -0.028,-0.096 -0.022,-0.098 -0.0157,-0.099 -0.0094,-0.101 -0.0032,-0.1 z"
     id="path826" />
  <path
     style="fill:none;stroke:#000000;stroke-width:0.0254;stroke-miterlimit:4;stroke-dasharray:none"
     d="m -26.3468,-8.35 0.0094,-0.101 0.0157,-0.099 0.022,-0.098 0.028,-0.096 0.0341,-0.095 0.0399,-0.092 0.0456,-0.09 0.0512,-0.086 0.0565,-0.083 0.0616,-0.08 0.0665,-0.075 0.071,-0.071 0.0754,-0.067 0.0795,-0.061 0.0831,-0.057 0.0865,-0.051 0.0896,-0.046 0.0922,-0.04 0.0946,-0.034 0.0965,-0.028 0.0981,-0.022 0.0993,-0.015 0.1,-0.01 0.1005,-0.003 0.1005,0.003 0.1,0.01 0.0993,0.015 0.0981,0.022 0.0965,0.028 0.0946,0.034 0.0923,0.04 0.0895,0.046 0.0865,0.051 0.0832,0.057 0.0794,0.061 0.0754,0.067 0.0711,0.071 0.0664,0.075 0.0616,0.08 0.0565,0.083 0.0512,0.086 0.0456,0.09 0.04,0.092 0.034,0.095 0.028,0.096 0.022,0.098 0.0157,0.099 0.0094,0.101 0.0032,0.1 -0.0032,0.1 -0.0094,0.101 -0.0157,0.099 -0.022,0.098 -0.028,0.096 -0.034,0.095 -0.04,0.092 -0.0456,0.09 -0.0512,0.086 -0.0565,0.083 -0.0616,0.08 -0.0664,0.075 -0.0711,0.071 -0.0754,0.067 -0.0794,0.061 -0.0832,0.057 -0.0865,0.051 -0.0895,0.046 -0.0923,0.04 -0.0946,0.034 -0.0965,0.028 -0.0981,0.022 -0.0993,0.015 -0.1,0.01 -0.1005,0.003 -0.1005,-0.003 -0.1,-0.01 -0.0993,-0.015 -0.0981,-0.022 -0.0965,-0.028 -0.0946,-0.034 -0.0922,-0.04 -0.0896,-0.046 -0.0865,-0.051 -0.0831,-0.057 -0.0795,-0.061 -0.0754,-0.067 -0.071,-0.071 -0.0665,-0.075 -0.0616,-0.08 -0.0565,-0.083 -0.0512,-0.086 -0.0456,-0.09 -0.0399,-0.092 -0.0341,-0.095 -0.028,-0.096 -0.022,-0.098 -0.0157,-0.099 -0.0094,-0.101 -0.0032,-0.1 z"
     id="path824" />
  <path
     style="fill:none;stroke:#000000;stroke-width:0.0254;stroke-miterlimit:4;stroke-dasharray:none"
     d="m -26.3468,-110.35 0.0094,-0.101 0.0157,-0.099 0.022,-0.098 0.028,-0.096 0.0341,-0.095 0.0399,-0.092 0.0456,-0.09 0.0512,-0.086 0.0565,-0.083 0.0616,-0.08 0.0665,-0.075 0.071,-0.071 0.0754,-0.067 0.0795,-0.061 0.0831,-0.057 0.0865,-0.051 0.0896,-0.046 0.0922,-0.04 0.0946,-0.034 0.0965,-0.028 0.0981,-0.022 0.0993,-0.015 0.1,-0.01 0.1005,-0.003 0.1005,0.003 0.1,0.01 0.0993,0.015 0.0981,0.022 0.0965,0.028 0.0946,0.034 0.0923,0.04 0.0895,0.046 0.0865,0.051 0.0832,0.057 0.0794,0.061 0.0754,0.067 0.0711,0.071 0.0664,0.075 0.0616,0.08 0.0565,0.083 0.0512,0.086 0.0456,0.09 0.04,0.092 0.034,0.095 0.028,0.096 0.022,0.098 0.0157,0.099 0.0094,0.101 0.0032,0.1 -0.0032,0.1 -0.0094,0.101 -0.0157,0.099 -0.022,0.098 -0.028,0.096 -0.034,0.095 -0.04,0.092 -0.0456,0.09 -0.0512,0.086 -0.0565,0.083 -0.0616,0.08 -0.0664,0.075 -0.0711,0.071 -0.0754,0.067 -0.0794,0.061 -0.0832,0.057 -0.0865,0.051 -0.0895,0.046 -0.0923,0.04 -0.0946,0.034 -0.0965,0.028 -0.0981,0.022 -0.0993,0.015 -0.1,0.01 -0.1005,0.003 -0.1005,-0.003 -0.1,-0.01 -0.0993,-0.015 -0.0981,-0.022 -0.0965,-0.028 -0.0946,-0.034 -0.0922,-0.04 -0.0896,-0.046 -0.0865,-0.051 -0.0831,-0.057 -0.0795,-0.061 -0.0754,-0.067 -0.071,-0.071 -0.0665,-0.075 -0.0616,-0.08 -0.0565,-0.083 -0.0512,-0.086 -0.0456,-0.09 -0.0399,-0.092 -0.0341,-0.095 -0.028,-0.096 -0.022,-0.098 -0.0157,-0.099 -0.0094,-0.101 -0.0032,-0.1 z"
     id="path4" />
</svg>
