<?xml version="1.0" encoding="UTF-8" standalone="no"?>
<svg
   xmlns:dc="http://purl.org/dc/elements/1.1/"
   xmlns:cc="http://creativecommons.org/ns#"
   xmlns:rdf="http://www.w3.org/1999/02/22-rdf-syntax-ns#"
   xmlns:svg="http://www.w3.org/2000/svg"
   xmlns="http://www.w3.org/2000/svg"
   xmlns:sodipodi="http://sodipodi.sourceforge.net/DTD/sodipodi-0.dtd"
   xmlns:inkscape="http://www.inkscape.org/namespaces/inkscape"
   width="302"
   height="266"
   viewBox="-30 -267 302 266"
   version="1.1"
   id="svg990"
   sodipodi:docname="apparatus11holes02.svg"
   inkscape:version="0.92.1 r15371">
  <metadata
     id="metadata996">
    <rdf:RDF>
      <cc:Work
         rdf:about="">
        <dc:format>image/svg+xml</dc:format>
        <dc:type
           rdf:resource="http://purl.org/dc/dcmitype/StillImage" />
        <dc:title>OpenSCAD Model</dc:title>
      </cc:Work>
    </rdf:RDF>
  </metadata>
  <defs
     id="defs994" />
  <sodipodi:namedview
     pagecolor="#ffffff"
     bordercolor="#666666"
     borderopacity="1"
     objecttolerance="10"
     gridtolerance="10"
     guidetolerance="10"
     inkscape:pageopacity="0"
     inkscape:pageshadow="2"
     inkscape:window-width="1536"
     inkscape:window-height="801"
     id="namedview992"
     showgrid="false"
     fit-margin-top="0"
     fit-margin-left="0"
     fit-margin-right="0"
     fit-margin-bottom="0"
     inkscape:zoom="1.5629139"
     inkscape:cx="71.59416"
     inkscape:cy="130.76141"
     inkscape:window-x="-8"
     inkscape:window-y="-8"
     inkscape:window-maximized="1"
     inkscape:current-layer="svg990" />
  <title
     id="title986">OpenSCAD Model</title>
  <path
     style="fill:none;stroke:#000000;stroke-width:0.096;stroke-miterlimit:4;stroke-dasharray:none"
     d="m 141.041,-87.796 0.643,-3.024 1.257,-2.825 1.818,-2.501 2.298,-2.069 2.677,-1.546 2.941,-0.956 3.075,-0.323 3.075,0.323 2.941,0.956 2.677,1.546 2.298,2.069 1.818,2.501 1.257,2.825 0.643,3.024 v 3.092 l -0.643,3.024 -1.257,2.825 -1.818,2.501 -2.298,2.069 -2.677,1.546 -2.941,0.956 -3.075,0.323 -3.075,-0.323 -2.941,-0.956 -2.677,-1.546 -2.298,-2.069 -1.818,-2.501 -1.257,-2.825 -0.643,-3.024 z"
     id="path1692" />
  <path
     style="fill:none;stroke:#000000;stroke-width:0.096;stroke-miterlimit:4;stroke-dasharray:none"
     d="m 141.041,-238.29597 0.643,-3.02439 1.257,-2.82463 1.818,-2.50145 2.298,-2.06886 2.677,-1.546 2.941,-0.9555 3.075,-0.3232 3.075,0.3232 2.941,0.9555 2.677,1.546 2.298,2.06886 1.818,2.50145 1.257,2.82463 0.643,3.02439 v 3.09194 l -0.643,3.02439 -1.257,2.82463 -1.818,2.50145 -2.298,2.06886 -2.677,1.546 -2.941,0.9555 -3.075,0.3232 -3.075,-0.3232 -2.941,-0.9555 -2.677,-1.546 -2.298,-2.06886 -1.818,-2.50145 -1.257,-2.82463 -0.643,-3.02439 z"
     id="path1646" />
  <path
     style="fill:none;stroke:#000000;stroke-width:0.096;stroke-miterlimit:4;stroke-dasharray:none"
     d="m -5.5877,-239.65395 1.1209,-2.70604 1.78307,-2.32374 2.32374,-1.78307 2.70604,-1.1209 2.90395,-0.3823 2.90395,0.3823 2.70604,1.1209 2.32374,1.78307 1.78307,2.32374 1.1209,2.70604 0.3823,2.90395 -0.3823,2.90395 -1.1209,2.70604 -1.78307,2.32374 -2.32374,1.78307 -2.70604,1.1209 -2.90395,0.3823 -2.90395,-0.3823 -2.70604,-1.1209 -2.32374,-1.78307 -1.78307,-2.32374 -1.1209,-2.70604 L -5.97,-236.75 Z"
     id="path1600" />
  <path
     style="fill:none;stroke:#000000;stroke-width:0.096;stroke-miterlimit:4;stroke-dasharray:none"
     d="m -9.459,-87.796 0.6429,-3.024 1.2576,-2.825 1.8174,-2.501 2.29777,-2.069 2.67771,-1.546 2.94061,-0.956 3.07501,-0.323 3.07501,0.323 2.94061,0.956 2.67771,1.546 2.29777,2.069 1.8174,2.501 1.2576,2.825 0.6429,3.024 v 3.092 l -0.6429,3.024 -1.2576,2.825 -1.8174,2.501 -2.29777,2.069 -2.67771,1.546 -2.94061,0.956 -3.07501,0.323 -3.07501,-0.323 -2.94061,-0.956 -2.67771,-1.546 -2.29777,-2.069 -1.8174,-2.501 -1.2576,-2.825 -0.6429,-3.024 z"
     id="path1556" />
</svg>
