solid OpenSCAD_Model
  facet normal -1 0 0
    outer loop
      vertex 0 0 0
      vertex 0 60 20
      vertex 0 60 0
    endloop
  endfacet
  facet normal -1 -0 0
    outer loop
      vertex 0 60 20
      vertex 0 0 0
      vertex 0 0 20
    endloop
  endfacet
  facet normal -0 0 1
    outer loop
      vertex 0 60 20
      vertex 65 0 20
      vertex 65 60 20
    endloop
  endfacet
  facet normal 0 0 1
    outer loop
      vertex 65 0 20
      vertex 0 60 20
      vertex 0 0 20
    endloop
  endfacet
  facet normal 1 -0 0
    outer loop
      vertex 65 0 20
      vertex 65 60 0
      vertex 65 60 20
    endloop
  endfacet
  facet normal 1 0 0
    outer loop
      vertex 65 60 0
      vertex 65 0 20
      vertex 65 0 0
    endloop
  endfacet
  facet normal 0 1 0
    outer loop
      vertex 65 60 20
      vertex 45 60 5
      vertex 0 60 20
    endloop
  endfacet
  facet normal 0 1 -0
    outer loop
      vertex 65 60 0
      vertex 45 60 5
      vertex 65 60 20
    endloop
  endfacet
  facet normal 0 1 0
    outer loop
      vertex 45 60 5
      vertex 65 60 0
      vertex 45 60 0
    endloop
  endfacet
  facet normal 0 1 -0
    outer loop
      vertex 20 60 5
      vertex 0 60 20
      vertex 45 60 5
    endloop
  endfacet
  facet normal 0 1 0
    outer loop
      vertex 0 60 0
      vertex 20 60 5
      vertex 20 60 0
    endloop
  endfacet
  facet normal 0 1 0
    outer loop
      vertex 20 60 5
      vertex 0 60 0
      vertex 0 60 20
    endloop
  endfacet
  facet normal 0 0 -1
    outer loop
      vertex 0 0 0
      vertex 20 60 0
      vertex 20 0 0
    endloop
  endfacet
  facet normal -0 0 -1
    outer loop
      vertex 20 60 0
      vertex 0 0 0
      vertex 0 60 0
    endloop
  endfacet
  facet normal 0 0 -1
    outer loop
      vertex 45 0 0
      vertex 65 60 0
      vertex 65 0 0
    endloop
  endfacet
  facet normal -0 0 -1
    outer loop
      vertex 65 60 0
      vertex 45 0 0
      vertex 45 60 0
    endloop
  endfacet
  facet normal 0 -1 0
    outer loop
      vertex 0 0 20
      vertex 20 0 5
      vertex 65 0 20
    endloop
  endfacet
  facet normal 0 -1 0
    outer loop
      vertex 0 0 0
      vertex 20 0 5
      vertex 0 0 20
    endloop
  endfacet
  facet normal 0 -1 -0
    outer loop
      vertex 20 0 5
      vertex 0 0 0
      vertex 20 0 0
    endloop
  endfacet
  facet normal 0 -1 0
    outer loop
      vertex 45 0 5
      vertex 65 0 20
      vertex 20 0 5
    endloop
  endfacet
  facet normal 0 -1 0
    outer loop
      vertex 65 0 0
      vertex 45 0 5
      vertex 45 0 0
    endloop
  endfacet
  facet normal 0 -1 0
    outer loop
      vertex 45 0 5
      vertex 65 0 0
      vertex 65 0 20
    endloop
  endfacet
  facet normal 1 -0 0
    outer loop
      vertex 20 0 5
      vertex 20 60 0
      vertex 20 60 5
    endloop
  endfacet
  facet normal 1 0 0
    outer loop
      vertex 20 60 0
      vertex 20 0 5
      vertex 20 0 0
    endloop
  endfacet
  facet normal 0 0 -1
    outer loop
      vertex 20 0 5
      vertex 45 60 5
      vertex 45 0 5
    endloop
  endfacet
  facet normal -0 0 -1
    outer loop
      vertex 45 60 5
      vertex 20 0 5
      vertex 20 60 5
    endloop
  endfacet
  facet normal -1 0 0
    outer loop
      vertex 45 0 0
      vertex 45 60 5
      vertex 45 60 0
    endloop
  endfacet
  facet normal -1 -0 0
    outer loop
      vertex 45 60 5
      vertex 45 0 0
      vertex 45 0 5
    endloop
  endfacet
  facet normal 1 -0 0
    outer loop
      vertex 70 80 40
      vertex 70 180 10
      vertex 70 180 40
    endloop
  endfacet
  facet normal 1 0 0
    outer loop
      vertex 70 180 10
      vertex 70 80 40
      vertex 70 80 10
    endloop
  endfacet
  facet normal -0 0 1
    outer loop
      vertex 70 180 10
      vertex 95 80 10
      vertex 95 180 10
    endloop
  endfacet
  facet normal 0 0 1
    outer loop
      vertex 95 80 10
      vertex 70 180 10
      vertex 70 80 10
    endloop
  endfacet
  facet normal 1 -0 0
    outer loop
      vertex 95 80 10
      vertex 95 180 0
      vertex 95 180 10
    endloop
  endfacet
  facet normal 1 0 0
    outer loop
      vertex 95 180 0
      vertex 95 80 10
      vertex 95 80 0
    endloop
  endfacet
  facet normal 0 1 0
    outer loop
      vertex 95 180 10
      vertex 95 180 0
      vertex 70 180 10
    endloop
  endfacet
  facet normal 0 1 -0
    outer loop
      vertex 63.1985 180 0
      vertex 32.1224 180 25
      vertex 63.1985 180 25
    endloop
  endfacet
  facet normal 0 1 0
    outer loop
      vertex 32.1224 180 25
      vertex 63.1985 180 0
      vertex 32.1224 180 0
    endloop
  endfacet
  facet normal 0 1 0
    outer loop
      vertex 63.1985 180 25
      vertex 70 180 40
      vertex 68.5194 180 25
    endloop
  endfacet
  facet normal 0 1 -0
    outer loop
      vertex 70 180 10
      vertex 68.5194 180 25
      vertex 70 180 40
    endloop
  endfacet
  facet normal 0 1 0
    outer loop
      vertex 70 180 10
      vertex 68.5194 180 0
      vertex 68.5194 180 25
    endloop
  endfacet
  facet normal 0 1 0
    outer loop
      vertex 68.5194 180 0
      vertex 70 180 10
      vertex 95 180 0
    endloop
  endfacet
  facet normal 0 1 0
    outer loop
      vertex 32.1224 180 25
      vertex 70 180 40
      vertex 63.1985 180 25
    endloop
  endfacet
  facet normal 0 1 0
    outer loop
      vertex 70 180 40
      vertex 32.1224 180 25
      vertex 25 180 40
    endloop
  endfacet
  facet normal 0 1 -0
    outer loop
      vertex 26.8015 180 25
      vertex 25 180 40
      vertex 32.1224 180 25
    endloop
  endfacet
  facet normal 0 1 0
    outer loop
      vertex 26.8015 180 25
      vertex 25 180 10
      vertex 25 180 40
    endloop
  endfacet
  facet normal 0 1 -0
    outer loop
      vertex 26.8015 180 0
      vertex 25 180 10
      vertex 26.8015 180 25
    endloop
  endfacet
  facet normal 0 1 0
    outer loop
      vertex 0 180 0
      vertex 25 180 10
      vertex 26.8015 180 0
    endloop
  endfacet
  facet normal 0 1 0
    outer loop
      vertex 25 180 10
      vertex 0 180 0
      vertex 0 180 10
    endloop
  endfacet
  facet normal 0 0 -1
    outer loop
      vertex 0 80 0
      vertex 45 130 0
      vertex 45 80 0
    endloop
  endfacet
  facet normal 0 0 -1
    outer loop
      vertex 0 180 0
      vertex 45 130 0
      vertex 0 80 0
    endloop
  endfacet
  facet normal 0 0 -1
    outer loop
      vertex 45 130 0
      vertex 0 180 0
      vertex 26.8015 180 0
    endloop
  endfacet
  facet normal 0 0 -1
    outer loop
      vertex 49.6985 128.29 0
      vertex 95 180 0
      vertex 95 80 0
    endloop
  endfacet
  facet normal -0 0 -1
    outer loop
      vertex 95 180 0
      vertex 49.6985 128.29 0
      vertex 68.5194 180 0
    endloop
  endfacet
  facet normal 0 0 -1
    outer loop
      vertex 49 80 0
      vertex 49.6985 128.29 0
      vertex 95 80 0
    endloop
  endfacet
  facet normal -0 0 -1
    outer loop
      vertex 49.6985 128.29 0
      vertex 49 80 0
      vertex 49 128.544 0
    endloop
  endfacet
  facet normal 0 0 -1
    outer loop
      vertex 46.6812 140 0
      vertex 63.1985 180 0
      vertex 48.6397 140 0
    endloop
  endfacet
  facet normal -0 0 -1
    outer loop
      vertex 63.1985 180 0
      vertex 46.6812 140 0
      vertex 32.1224 180 0
    endloop
  endfacet
  facet normal 0 -1 0
    outer loop
      vertex 0 80 10
      vertex 0 80 0
      vertex 25 80 10
    endloop
  endfacet
  facet normal 0 -1 0
    outer loop
      vertex 49 80 25
      vertex 25 80 40
      vertex 45 80 25
    endloop
  endfacet
  facet normal 0 -1 0
    outer loop
      vertex 25 80 10
      vertex 45 80 25
      vertex 25 80 40
    endloop
  endfacet
  facet normal 0 -1 0
    outer loop
      vertex 25 80 10
      vertex 45 80 0
      vertex 45 80 25
    endloop
  endfacet
  facet normal 0 -1 0
    outer loop
      vertex 45 80 0
      vertex 25 80 10
      vertex 0 80 0
    endloop
  endfacet
  facet normal 0 -1 0
    outer loop
      vertex 25 80 40
      vertex 49 80 25
      vertex 70 80 40
    endloop
  endfacet
  facet normal 0 -1 0
    outer loop
      vertex 49 80 25
      vertex 70 80 10
      vertex 70 80 40
    endloop
  endfacet
  facet normal 0 -1 0
    outer loop
      vertex 49 80 0
      vertex 70 80 10
      vertex 49 80 25
    endloop
  endfacet
  facet normal 0 -1 0
    outer loop
      vertex 95 80 0
      vertex 70 80 10
      vertex 49 80 0
    endloop
  endfacet
  facet normal 0 -1 0
    outer loop
      vertex 70 80 10
      vertex 95 80 0
      vertex 95 80 10
    endloop
  endfacet
  facet normal -1 0 0
    outer loop
      vertex 0 80 0
      vertex 0 180 10
      vertex 0 180 0
    endloop
  endfacet
  facet normal -1 -0 0
    outer loop
      vertex 0 180 10
      vertex 0 80 0
      vertex 0 80 10
    endloop
  endfacet
  facet normal -0 0 1
    outer loop
      vertex 0 180 10
      vertex 25 80 10
      vertex 25 180 10
    endloop
  endfacet
  facet normal 0 0 1
    outer loop
      vertex 25 80 10
      vertex 0 180 10
      vertex 0 80 10
    endloop
  endfacet
  facet normal -1 0 0
    outer loop
      vertex 25 80 10
      vertex 25 180 40
      vertex 25 180 10
    endloop
  endfacet
  facet normal -1 -0 0
    outer loop
      vertex 25 180 40
      vertex 25 80 10
      vertex 25 80 40
    endloop
  endfacet
  facet normal -0 0 1
    outer loop
      vertex 25 180 40
      vertex 70 80 40
      vertex 70 180 40
    endloop
  endfacet
  facet normal 0 0 1
    outer loop
      vertex 70 80 40
      vertex 25 180 40
      vertex 25 80 40
    endloop
  endfacet
  facet normal 0.939693 -0.34202 0
    outer loop
      vertex 48.6397 140 25
      vertex 63.1985 180 0
      vertex 63.1985 180 25
    endloop
  endfacet
  facet normal 0.939693 -0.34202 0
    outer loop
      vertex 63.1985 180 0
      vertex 48.6397 140 25
      vertex 48.6397 140 0
    endloop
  endfacet
  facet normal 0 0 -1
    outer loop
      vertex 45 80 25
      vertex 49 128.544 25
      vertex 49 80 25
    endloop
  endfacet
  facet normal 0 0 -1
    outer loop
      vertex 49 128.544 25
      vertex 45 130 25
      vertex 48.6397 140 25
    endloop
  endfacet
  facet normal -0 0 -1
    outer loop
      vertex 49 128.544 25
      vertex 45 80 25
      vertex 45 130 25
    endloop
  endfacet
  facet normal -0 0 -1
    outer loop
      vertex 48.6397 140 25
      vertex 45 130 25
      vertex 46.6812 140 25
    endloop
  endfacet
  facet normal 0 0 -1
    outer loop
      vertex 26.8015 180 25
      vertex 46.6812 140 25
      vertex 45 130 25
    endloop
  endfacet
  facet normal 0 0 -1
    outer loop
      vertex 46.6812 140 25
      vertex 26.8015 180 25
      vertex 32.1224 180 25
    endloop
  endfacet
  facet normal 0 0 -1
    outer loop
      vertex 48.6397 140 25
      vertex 68.5194 180 25
      vertex 49.6985 128.29 25
    endloop
  endfacet
  facet normal 0 0 -1
    outer loop
      vertex 48.6397 140 25
      vertex 49.6985 128.29 25
      vertex 49 128.544 25
    endloop
  endfacet
  facet normal -0 0 -1
    outer loop
      vertex 68.5194 180 25
      vertex 48.6397 140 25
      vertex 63.1985 180 25
    endloop
  endfacet
  facet normal -0.939693 0.34202 0
    outer loop
      vertex 49.6985 128.29 0
      vertex 68.5194 180 25
      vertex 68.5194 180 0
    endloop
  endfacet
  facet normal -0.939693 0.34202 0
    outer loop
      vertex 68.5194 180 25
      vertex 49.6985 128.29 0
      vertex 49.6985 128.29 25
    endloop
  endfacet
  facet normal 0.34201 0.939696 -0
    outer loop
      vertex 49.6985 128.29 0
      vertex 49 128.544 25
      vertex 49.6985 128.29 25
    endloop
  endfacet
  facet normal 0.34201 0.939696 0
    outer loop
      vertex 49 128.544 25
      vertex 49.6985 128.29 0
      vertex 49 128.544 0
    endloop
  endfacet
  facet normal -0.939693 -0.34202 0
    outer loop
      vertex 46.6812 140 0
      vertex 32.1224 180 25
      vertex 32.1224 180 0
    endloop
  endfacet
  facet normal -0.939693 -0.34202 0
    outer loop
      vertex 32.1224 180 25
      vertex 46.6812 140 0
      vertex 46.6812 140 25
    endloop
  endfacet
  facet normal 0.939693 0.34202 0
    outer loop
      vertex 45 130 25
      vertex 26.8015 180 0
      vertex 26.8015 180 25
    endloop
  endfacet
  facet normal 0.939693 0.34202 0
    outer loop
      vertex 26.8015 180 0
      vertex 45 130 25
      vertex 45 130 0
    endloop
  endfacet
  facet normal 1 -0 0
    outer loop
      vertex 45 80 25
      vertex 45 130 0
      vertex 45 130 25
    endloop
  endfacet
  facet normal 1 0 0
    outer loop
      vertex 45 130 0
      vertex 45 80 25
      vertex 45 80 0
    endloop
  endfacet
  facet normal -1 0 0
    outer loop
      vertex 49 80 0
      vertex 49 128.544 25
      vertex 49 128.544 0
    endloop
  endfacet
  facet normal -1 -0 0
    outer loop
      vertex 49 128.544 25
      vertex 49 80 0
      vertex 49 80 25
    endloop
  endfacet
  facet normal 0 -1 0
    outer loop
      vertex 46.6812 140 0
      vertex 48.6397 140 25
      vertex 46.6812 140 25
    endloop
  endfacet
  facet normal 0 -1 -0
    outer loop
      vertex 48.6397 140 25
      vertex 46.6812 140 0
      vertex 48.6397 140 0
    endloop
  endfacet
endsolid OpenSCAD_Model
